<svg width="13" height="14" viewBox="0 0 13 14" fill="none" xmlns="http://www.w3.org/2000/svg">
<g clip-path="url(#clip0_778_17)">
<rect width="12.8889" height="12.8889" transform="translate(0.0273438 0.5)" fill="#1877F2"/>
<path d="M12.6487 6.98187C12.6487 3.57101 9.88366 0.80596 6.47279 0.80596C3.06192 0.80596 0.296875 3.57101 0.296875 6.98187C0.296875 10.0645 2.55532 12.6194 5.5078 13.0828V8.7671H3.9397V6.98187H5.5078V5.62124C5.5078 4.0734 6.42982 3.21843 7.84054 3.21843C8.51623 3.21843 9.223 3.33905 9.223 3.33905V4.8589H8.44423C7.67703 4.8589 7.43778 5.33497 7.43778 5.82337V6.98187H9.15063L8.87681 8.7671H7.43778V13.0828C10.3903 12.6194 12.6487 10.0645 12.6487 6.98187Z" fill="white"/>
</g>
<defs>
<clipPath id="clip0_778_17">
<rect width="12.8889" height="12.8889" fill="white" transform="translate(0.0273438 0.5)"/>
</clipPath>
</defs>
</svg>
