<svg width="14" height="14" viewBox="0 0 14 14" fill="none" xmlns="http://www.w3.org/2000/svg">
<rect width="12.8889" height="12.8889" transform="translate(0.757812 0.5)" fill="white"/>
<path fill-rule="evenodd" clip-rule="evenodd" d="M13.13 7.08454C13.13 6.64662 13.0907 6.22553 13.0178 5.82129H7.20117V8.21025H10.5249C10.3818 8.98223 9.94665 9.63632 9.29256 10.0742V11.6238H11.2885C12.4563 10.5487 13.13 8.96539 13.13 7.08454Z" fill="#4285F4"/>
<path fill-rule="evenodd" clip-rule="evenodd" d="M7.20066 13.1199C8.86816 13.1199 10.2662 12.5669 11.288 11.6237L9.29205 10.0741C8.73903 10.4446 8.0316 10.6636 7.20066 10.6636C5.59212 10.6636 4.23061 9.57719 3.74496 8.11743H1.68164V9.71756C2.69786 11.736 4.78644 13.1199 7.20066 13.1199Z" fill="#34A853"/>
<path fill-rule="evenodd" clip-rule="evenodd" d="M3.7456 8.11763C3.62208 7.74707 3.5519 7.35125 3.5519 6.9442C3.5519 6.53715 3.62208 6.14133 3.7456 5.77078V4.17065H1.68228C1.26401 5.0044 1.02539 5.94763 1.02539 6.9442C1.02539 7.94077 1.26401 8.884 1.68228 9.71775L3.7456 8.11763Z" fill="#FBBC05"/>
<path fill-rule="evenodd" clip-rule="evenodd" d="M7.20066 3.22464C8.1074 3.22464 8.9215 3.53624 9.56155 4.14822L11.3329 2.37686C10.2634 1.38029 8.86535 0.768311 7.20066 0.768311C4.78644 0.768311 2.69786 2.15228 1.68164 4.17068L3.74496 5.7708C4.23061 4.31104 5.59212 3.22464 7.20066 3.22464Z" fill="#EA4335"/>
</svg>
