<svg width="250" height="63" viewBox="0 0 250 63" fill="none" xmlns="http://www.w3.org/2000/svg">
<g filter="url(#filter0_dd_511_124)">
<rect x="8.60938" y="8" width="229.981" height="41.1349" rx="20.5674" fill="#FF8C99"/>
</g>
<path fill-rule="evenodd" clip-rule="evenodd" d="M27.2585 34.8017C31.5437 34.7032 33.9498 34.1721 36.1907 31.6259C37.9116 29.6703 38.6445 25.6746 38.5537 22.3183C33.6027 23.6481 27.4451 28.775 27.2585 34.8017ZM27.6763 19.2236C29.2479 17.1291 35.9466 12.2758 40.1759 11.7002C39.6026 16.5826 39.2916 13.6592 39.2725 21.2421C41.3046 20.8275 45.1225 19.4397 47.1096 20.1523C47.2047 20.7558 43.409 30.2339 42.8191 31.3601C41.9277 33.0621 40.5104 34.6637 39.1857 35.6571C37.5624 36.8745 35.6471 37.1284 33.3225 37.4061C35.0459 39.0718 38.4375 40.1728 41.5249 40.3288C41.0955 41.3137 41.0292 41.0464 40.0339 41.639C37.8423 42.9442 38.0548 44.7413 37.1391 46.3091C36.4646 45.8546 36.4967 45.5294 35.9431 44.6735C32.6628 39.6026 27.6945 37.9383 25.887 37.2068C24.8174 36.7739 21.9348 33.7669 21.3569 32.6628C19.3235 28.7775 20.068 24.9559 17.6508 22.0333C15.6256 19.5846 14.4517 19.8535 14.4726 18.5227C15.7015 17.7206 15.1863 19.02 17.7259 17.6775C21.4119 15.7289 23.1972 19.9647 24.3603 21.21C24.7905 21.6707 25.0189 21.6287 25.0103 21.7613C24.8916 23.5879 25.1304 23.0266 25.8029 21.9265C26.3226 21.0764 26.9478 20.1944 27.6763 19.2236Z" fill="#FEFEFE" fill-opacity="0.38"/>
<path fill-rule="evenodd" clip-rule="evenodd" d="M27.2585 34.8017C31.5437 34.7032 33.9498 34.1721 36.1907 31.6259C37.9116 29.6703 38.6445 25.6746 38.5537 22.3183C33.6027 23.6481 27.4451 28.775 27.2585 34.8017ZM27.6763 19.2236C29.2479 17.1291 35.9466 12.2758 40.1759 11.7002C39.6026 16.5826 39.2916 13.6592 39.2725 21.2421C41.3046 20.8275 45.1225 19.4397 47.1096 20.1523C47.2047 20.7558 43.409 30.2339 42.8191 31.3601C41.9277 33.0621 40.5104 34.6637 39.1857 35.6571C37.5624 36.8745 35.6471 37.1284 33.3225 37.4061C35.0459 39.0718 38.4375 40.1728 41.5249 40.3288C41.0955 41.3137 41.0292 41.0464 40.0339 41.639C37.8423 42.9442 38.0548 44.7413 37.1391 46.3091C36.4646 45.8546 36.4967 45.5294 35.9431 44.6735C32.0324 38.6281 25.7225 37.4245 25.2296 36.8708C27.8236 35.7161 35.6957 41.9721 36.7648 44.877L37.4769 43.6802C37.7403 43.0995 37.7795 42.9617 38.1121 42.5332C38.5612 41.9548 39.1877 41.4383 39.7928 40.9222C38.4421 40.2245 32.236 39.3148 32.277 36.6759C37.8099 36.6285 40.0459 34.8245 42.043 31.3465C43.6407 28.5641 45.2448 23.9123 46.2746 20.6578C44.3298 20.7524 40.8071 21.2903 39.2607 22.116C38.8819 31.2696 36.251 35.9072 26.5276 35.4126C26.673 28.4793 32.9562 23.1619 38.6172 21.5539C38.6789 18.2574 38.6113 15.9025 39.2195 12.6598C34.3596 14.0278 29.7177 17.6377 27.4949 20.5799C23.0246 26.497 24.2181 30.5729 25.0612 36.1502C23.7255 36.0955 21.9509 33.7977 21.3569 32.6628C19.3235 28.7775 20.068 24.9559 17.6508 22.0333C15.6256 19.5846 14.4517 19.8535 14.4726 18.5227C15.7015 17.7206 15.1863 19.02 17.7259 17.6775C21.4119 15.7289 23.1972 19.9647 24.3603 21.21C25.0557 21.9548 25.1357 21.3911 24.8791 22.3545C23.7339 22.4207 22.6669 19.4787 21.2268 18.4418C18.5109 16.4866 17.5394 19.7618 15.2491 18.8318C15.9751 19.8234 16.8184 19.5139 18.3671 21.8263C20.5446 25.0774 20.1334 27.985 21.4385 31.2999C22.0317 32.8066 23.0907 34.3254 24.0927 34.8552C22.9507 27.01 23.8521 24.3203 27.6763 19.2236Z" fill="white"/>
<path fill-rule="evenodd" clip-rule="evenodd" d="M27.2578 34.8008C27.4445 28.7741 33.6021 23.6472 38.5531 22.3174C38.6439 25.6737 37.911 29.6694 36.19 31.625C33.9492 34.1712 31.5431 34.7023 27.2578 34.8008Z" fill="#FEFEFE" fill-opacity="0.38"/>
<path fill-rule="evenodd" clip-rule="evenodd" d="M12.5454 17.954C12.1628 17.3607 11.931 17.3995 11.2984 17.3091C10.0303 17.1279 10.3037 17.6711 9.76979 16.7661L11.6116 16.4822C9.9426 15.8435 7.68562 16.2142 6.52099 17.3495C9.24227 18.5802 9.63891 18.1673 12.5454 17.954ZM13.9951 15.346C15.8274 14.5874 14.7261 12.5652 13.8897 10.6784C13.8318 10.5476 13.5936 10.0509 13.5527 9.98582C13.5215 9.93647 13.474 9.86664 13.4437 9.82317L13.1736 9.51812C13.1523 9.42176 13.0737 9.42021 13.0229 9.3721C12.6444 10.6097 12.1894 12.2851 12.7042 13.6711L13.4006 14.6651C13.4435 13.6687 13.2009 13.1789 13.5977 12.5571C14.3236 13.2501 14.1319 13.9303 13.9951 15.346ZM9.67943 12.3957C9.53151 10.012 6.62313 9.08364 3.98239 8.87425C4.59078 10.7203 6.22398 12.7773 8.66119 12.6433C8.11791 12.0445 6.97696 11.5054 6.56614 10.7988C7.69857 10.5311 8.88282 11.8346 9.67943 12.3957ZM12.5454 17.954C12.2197 19.977 5.72659 18.6396 5.02277 17.1272C6.75177 16.0106 9.18332 15.1831 11.4112 15.4786C8.28688 11.5546 8.92203 14.3242 6.16949 12.8085C5.05309 12.1937 2.92531 9.7331 3.00227 8.01362C4.98097 7.84894 8.4422 9.21172 9.46157 10.2578C9.73629 10.5397 10.1142 11.0604 10.2706 11.5073C10.4974 12.1553 10.346 11.794 10.4463 12.3268C10.4627 12.4141 10.4941 12.6828 10.515 12.7676L10.6317 13.1731C10.6556 13.2313 10.6881 13.2967 10.7162 13.3507C10.8513 13.6104 12.5738 15.7061 12.7722 15.8824C12.4839 14.3298 11.7515 14.1341 11.7952 12C11.826 10.4919 12.2252 8.95221 13.0873 8.1645C13.7785 8.54232 13.4565 8.20092 14.346 9.97436C14.9941 11.2665 16.1066 13.7366 15.4581 15.1588C15.0096 16.1422 14.1385 15.8291 13.5417 15.9515C12.9978 17.8308 13.6915 17.6191 14.0978 19.7299C14.3365 20.97 14.7536 23.423 13.5845 24.0205C13.4396 22.8706 13.6578 21.6809 13.512 20.4968C13.4579 20.0573 13.3502 19.4783 13.21 19.0462C12.8983 18.0859 12.8201 18.1717 12.5454 17.954Z" fill="#A9BC5C"/>
<path fill-rule="evenodd" clip-rule="evenodd" d="M9.67969 12.3962C8.88307 11.8351 7.69882 10.5316 6.56639 10.7993C6.97721 11.5059 8.11816 12.045 8.66145 12.6438C6.22424 12.7778 4.59103 10.7208 3.98264 8.87476C6.62339 9.08415 9.53176 10.0125 9.67969 12.3962Z" fill="#4A7416"/>
<path fill-rule="evenodd" clip-rule="evenodd" d="M13.9949 15.3462C14.1317 13.9305 14.3234 13.2504 13.5975 12.5573C13.2007 13.1791 13.4433 13.6689 13.4004 14.6653L12.704 13.6713C12.1892 12.2853 12.6442 10.6099 13.0227 9.37231C13.0735 9.42042 13.1521 9.42197 13.1734 9.51833L13.4435 9.82338C13.4738 9.86685 13.5213 9.93668 13.5524 9.98603C13.5934 10.0511 13.8316 10.5478 13.8895 10.6786C14.7259 12.5654 15.8272 14.5876 13.9949 15.3462Z" fill="#4A7416"/>
<path fill-rule="evenodd" clip-rule="evenodd" d="M12.5449 17.9533C9.63838 18.1667 9.24174 18.5796 6.52046 17.3489C7.68509 16.2135 9.94207 15.8428 11.611 16.4815L9.76927 16.7654C10.3031 17.6705 10.0298 17.1272 11.2979 17.3084C11.9305 17.3989 12.1623 17.36 12.5449 17.9533Z" fill="#4A7416"/>
<path fill-rule="evenodd" clip-rule="evenodd" d="M19.6073 19.8341C18.466 20.119 18.165 19.4587 18.7005 18.9343C19.2399 18.406 19.8617 18.7934 19.6073 19.8341Z" fill="white"/>
<defs>
<filter id="filter0_dd_511_124" x="0.609375" y="0" width="248.98" height="62.1348" filterUnits="userSpaceOnUse" color-interpolation-filters="sRGB">
<feFlood flood-opacity="0" result="BackgroundImageFix"/>
<feColorMatrix in="SourceAlpha" type="matrix" values="0 0 0 0 0 0 0 0 0 0 0 0 0 0 0 0 0 0 127 0" result="hardAlpha"/>
<feOffset dx="2" dy="4"/>
<feGaussianBlur stdDeviation="4.5"/>
<feColorMatrix type="matrix" values="0 0 0 0 0 0 0 0 0 0 0 0 0 0 0 0 0 0 0.25 0"/>
<feBlend mode="normal" in2="BackgroundImageFix" result="effect1_dropShadow_511_124"/>
<feColorMatrix in="SourceAlpha" type="matrix" values="0 0 0 0 0 0 0 0 0 0 0 0 0 0 0 0 0 0 127 0" result="hardAlpha"/>
<feOffset dx="-4" dy="-4"/>
<feGaussianBlur stdDeviation="2"/>
<feColorMatrix type="matrix" values="0 0 0 0 1 0 0 0 0 1 0 0 0 0 1 0 0 0 0.74 0"/>
<feBlend mode="normal" in2="effect1_dropShadow_511_124" result="effect2_dropShadow_511_124"/>
<feBlend mode="normal" in="SourceGraphic" in2="effect2_dropShadow_511_124" result="shape"/>
</filter>
</defs>
</svg>
