<svg width="230" height="80" viewBox="0 0 230 80" fill="none" xmlns="http://www.w3.org/2000/svg">
<path d="M191.729 76.6175C191.729 76.0417 191.877 75.5524 192.173 75.1493L222.582 19.357H194.574C193.329 19.357 192.707 18.6661 192.707 17.2842C192.707 15.9024 193.329 15.2114 194.574 15.2114H226.495C227.739 15.2114 228.362 15.7296 228.362 16.766C228.362 17.3993 228.184 18.0039 227.828 18.5797L197.508 74.1993H227.473C228.717 74.1993 229.34 74.8902 229.34 76.272C229.34 77.6539 228.717 78.3448 227.473 78.3448H193.596C192.351 78.3448 191.729 77.769 191.729 76.6175Z" fill="black"/>
<path fill-rule="evenodd" clip-rule="evenodd" d="M119.731 27.8439C118.987 28.9155 116.285 31.2767 114.781 33.7764C113.287 36.2584 112.213 38.8509 112.53 42.6844C112.792 45.8404 114.289 48.9639 115.807 50.4831C116.885 51.5621 116.936 51.8751 118.745 52.8906C119.557 53.3466 121.931 54.3251 122.802 54.0206C123.1 53.6305 123.352 52.4877 123.949 52.5501C123.891 53.0206 123.404 53.7822 123.223 54.1208L124.151 54.1661C124.289 53.4769 124.642 52.6493 125.22 52.5091C125.183 53.0823 124.727 53.3578 124.53 54.1525C128.785 54.1749 133.829 50.4472 133.682 46.1375C133.623 44.406 132.498 42.8618 131.648 42.2434C126.553 38.5358 120.915 44.3842 124.268 47.9136C125.083 48.7711 126.607 48.5278 127.246 47.754C127.683 47.2242 127.321 46.961 128.004 46.9883C128.868 48.7071 123.828 50.947 122.796 46.5895C122.053 43.4515 124.59 40.9433 126.876 40.4697C131.675 39.476 136.441 44.3213 133.255 49.9516C132.913 50.5552 132.368 51.0224 132.128 51.5275C133.083 51.8702 133.075 49.8549 133.971 49.8647C134.061 50.5897 133.286 50.8085 132.893 51.9529C133.568 52.1578 133.946 52.3734 134.803 52.3992L136.18 50.2288C136.412 49.7732 136.311 49.6947 136.698 49.5718C137.065 50.203 135.552 51.8656 135.371 52.4733C139.465 52.6027 146.236 53.1815 148.456 48.647C149.821 45.8598 147.358 44.9957 147.784 44.4813C148.192 43.9895 148.738 44.7984 148.997 45.2326C149.317 45.7694 149.462 46.4307 149.521 47.2235C152.257 46.6477 154.359 43.9998 154.17 40.3339C153.358 40.5003 152.739 40.9469 151.771 41.1198C151.057 41.2475 149.571 41.3351 149.633 40.2239C150.376 39.9636 150.38 41.1059 153.315 39.8814C156.836 38.4121 158.968 34.87 158.984 30.6393C157.973 31.2743 157.178 32.1773 155.677 33.0356C155.13 33.3483 154.396 33.7019 153.791 33.9003C153.403 34.0275 152.147 34.3562 151.75 34.262C151.251 34.1434 151.598 34.2789 151.401 34.0631C151.213 33.5249 151.865 33.58 152.278 33.4875C152.338 33.0656 152.413 32.8338 152.578 32.4456C152.759 32.0181 152.757 31.8564 153.185 31.8021C153.25 32.3496 152.839 32.813 152.699 33.4322C153.932 33.2514 153.435 32.2326 154.029 31.4613C154.248 31.1778 153.997 31.3581 154.309 31.247C154.592 31.8097 154.145 31.923 153.858 33.1075C155.445 32.7067 157.752 30.8857 158.994 29.559C159.532 28.9847 160.657 28.5167 161.602 26.7943C162.498 25.1601 161.894 24.4256 161.787 22.6441C160.784 23.3542 160.388 24.0468 158.656 25.1442C158.102 25.4953 155.445 27.007 154.773 26.4938C154.722 25.8671 154.889 25.9799 155.494 25.8365C156.791 25.5294 158.989 24.2196 159.991 23.2968C161.562 21.8496 162.916 20.6753 163.976 18.6088C164.799 17.0052 164.748 15.1781 163.642 14.1562C162.8 15.0345 162.996 15.3285 160.963 16.8831C159.289 18.1621 159.419 17.4752 159.172 19.2038C158.988 20.4947 158.999 20.1219 158.767 20.198C158.515 19.8062 158.855 18.8387 158.899 18.2965C158.496 18.4145 158.175 18.5651 158.031 19.0559C157.755 20.0053 158.104 20.1773 157.511 20.3437C157.388 19.9318 157.562 19.4995 157.628 18.993C156.934 19.2112 156.002 19.9596 155.312 19.8764C155.022 19.2223 155.422 19.2909 156.675 18.6638C158.567 17.7161 160.673 16.4662 162.07 15.0315C163.818 13.2366 165.909 9.42085 164.266 5.95353C162.759 2.77468 159.369 2.06513 156.874 4.89197C155.534 6.41047 155.096 7.18413 154.157 8.28537C150.654 12.3963 145.647 12.5725 140.711 12.7251C134.371 12.9211 129.282 13.2151 124.421 17.2662C123.039 18.4174 121.314 20.8103 120.571 22.7242C120.253 23.5438 120.029 24.1696 119.833 25.1052C119.531 26.5465 119.484 26.847 119.731 27.8439Z" fill="#FEFEFE" fill-opacity="0.77"/>
<path fill-rule="evenodd" clip-rule="evenodd" d="M52.8319 26.5428C53.5762 27.5579 56.2783 29.7948 57.7825 32.163C59.276 34.5145 60.3501 36.9703 60.0326 40.6022C59.7712 43.5921 58.2736 46.5512 56.7559 47.9903C55.6781 49.0125 55.6268 49.3092 53.8185 50.271C53.0061 50.7032 50.6322 51.6301 49.7613 51.3417C49.4629 50.9722 49.2113 49.8894 48.6141 49.9485C48.6725 50.3944 49.1587 51.1158 49.3402 51.4367L48.412 51.4796C48.2739 50.8267 47.9213 50.0426 47.3428 49.9096C47.3801 50.4529 47.8358 50.7138 48.0328 51.4667C43.7779 51.488 38.7341 47.9563 38.8814 43.8735C38.9405 42.2332 40.0648 40.7702 40.9147 40.1844C46.0097 36.6719 51.6481 42.2124 48.2947 45.5561C47.4797 46.3685 45.9556 46.1382 45.317 45.4049C44.8799 44.9029 45.2419 44.6538 44.5586 44.6795C43.6948 46.3079 48.7354 48.4298 49.7669 44.3017C50.5098 41.3289 47.9735 38.9527 45.687 38.5042C40.8878 37.5626 36.1222 42.1529 39.3083 47.4867C39.6499 48.0586 40.1951 48.5013 40.435 48.9799C39.4798 49.3046 39.4883 47.3952 38.5921 47.4046C38.502 48.0916 39.2766 48.2985 39.67 49.3829C38.9955 49.577 38.6173 49.7813 37.7596 49.8057L36.3834 47.7494C36.1508 47.3179 36.2522 47.2435 35.8648 47.1271C35.4983 47.725 37.0113 49.3001 37.1916 49.8759C33.098 49.9984 26.3269 50.5469 24.107 46.251C22.7425 43.6103 25.2054 42.7919 24.7789 42.3046C24.3709 41.8385 23.8253 42.6049 23.5663 43.0163C23.2462 43.5249 23.1006 44.1513 23.0422 44.9024C20.3064 44.3569 18.204 41.8483 18.3933 38.3754C19.2049 38.5331 19.8242 38.956 20.7922 39.1199C21.5062 39.241 22.9925 39.3239 22.9302 38.2712C22.1873 38.0247 22.1828 39.1067 19.2483 37.9467C15.7266 36.5548 13.5949 33.1991 13.5792 29.1911C14.5898 29.7925 15.3847 30.6481 16.8859 31.4612C17.4326 31.7574 18.1674 32.0923 18.7725 32.2805C19.1599 32.401 20.4159 32.7123 20.8126 32.6229C21.3117 32.5107 20.9655 32.6391 21.1624 32.4346C21.3497 31.9248 20.698 31.9769 20.2854 31.8893C20.2247 31.4896 20.1504 31.2701 19.9854 30.9022C19.8037 30.4972 19.8061 30.3441 19.3786 30.2928C19.3132 30.8114 19.7242 31.2503 19.8644 31.8369C18.631 31.6655 19.1284 30.7004 18.534 29.9697C18.3155 29.7011 18.5663 29.872 18.2542 29.7667C17.9707 30.2999 18.4185 30.4072 18.7049 31.5293C17.1176 31.1496 14.8106 29.4244 13.5687 28.1676C13.0313 27.6236 11.9063 27.18 10.9613 25.5483C10.0648 24.0003 10.6696 23.3044 10.7759 21.6167C11.7795 22.2894 12.175 22.9454 13.9066 23.9852C14.4605 24.3177 17.1176 25.75 17.7902 25.2637C17.8415 24.6701 17.6746 24.7769 17.0687 24.641C15.7726 24.35 13.5743 23.1091 12.5723 22.235C11.0008 20.8639 9.6474 19.7515 8.58659 17.7936C7.76351 16.2746 7.81481 14.5437 8.92148 13.5756C9.76355 14.4076 9.56674 14.686 11.6005 16.1588C13.2736 17.3705 13.1442 16.7198 13.3911 18.3573C13.5755 19.5803 13.5639 19.2273 13.7959 19.2992C14.0477 18.9281 13.7084 18.0115 13.6645 17.498C14.0669 17.6098 14.3883 17.7523 14.5315 18.2173C14.8085 19.1168 14.4594 19.2797 15.0517 19.4374C15.1751 19.0472 15.0014 18.6374 14.9354 18.1577C15.629 18.3645 16.5606 19.0734 17.2513 18.9946C17.5408 18.3749 17.1411 18.4399 15.8886 17.8459C13.996 16.9482 11.8899 15.7639 10.4928 14.4047C8.74475 12.7042 6.65422 9.08933 8.29751 5.80456C9.80399 2.79292 13.1944 2.12076 15.6888 4.79887C17.0287 6.23741 17.4674 6.97039 18.4059 8.0137C21.9096 11.9083 26.9165 12.0751 31.8522 12.2196C38.1925 12.4054 43.2815 12.6839 48.1424 16.5218C49.5239 17.6124 51.2493 19.8793 51.9922 21.6923C52.3103 22.469 52.5342 23.0618 52.7304 23.9481C53.0325 25.3137 53.0791 25.5983 52.8319 26.5428Z" fill="#FEFEFE" fill-opacity="0.77"/>
<path fill-rule="evenodd" clip-rule="evenodd" d="M100.028 72.1315C98.9682 71.8077 98.8077 71.4574 98.4206 70.4883C98.0994 69.6837 97.8164 68.8976 97.5396 68.0609C97.0082 66.454 96.3866 64.8235 95.8174 63.1976L85.5092 34.1578C84.6203 31.6706 82.7497 27.6297 81.6579 24.8897C79.8963 20.4684 77.768 15.5074 75.8764 11.0317C75.1495 9.31162 74.6491 7.54262 75.6357 5.70162C77.1588 2.85958 80.7754 2.90614 83.4568 4.89105C83.7386 5.09968 84.1174 5.47994 84.3558 5.61573C83.7101 3.60754 81.8916 1.19901 80.0589 0.618299C75.8256 -0.722958 70.7009 5.59011 72.5759 10.6754C73.4185 12.9608 74.2504 15.275 75.1136 17.5294C76.8325 22.0193 78.448 26.6371 80.0701 31.1975C81.7255 35.8511 83.3656 40.3288 85.0047 44.9777C88.2566 54.201 91.6582 63.282 94.8809 72.4413C95.2496 73.4891 96.9834 78.693 97.4992 79.1449C98.2233 79.779 100.487 79.8967 101.311 79.2909C102.02 78.7702 102.452 77.1206 102.832 76.0793C104.491 71.5328 106.167 66.9444 107.775 62.3164C110.971 53.1188 114.328 43.9357 117.514 34.715C119.457 29.0936 121.62 23.1674 123.673 17.5768C123.96 16.7945 124.949 14.7621 124.404 14.0724C124.071 13.6516 122.204 12.5871 121.027 13.6448C120.285 14.3122 119.78 15.538 119.382 16.7285C118.597 19.0733 117.92 21.4605 117.106 23.7697C116.292 26.0812 115.492 28.3389 114.674 30.6553C113.044 35.2639 111.422 39.8778 109.791 44.4843C108.152 49.1135 106.508 53.6518 104.912 58.3103C103.508 62.4087 102.194 66.3797 100.674 70.4155C100.47 70.9566 100.166 71.6249 100.028 72.1315Z" fill="black"/>
<path fill-rule="evenodd" clip-rule="evenodd" d="M83.5128 46.3137C83.2087 46.8918 76.1856 67.2505 75.3279 69.6063C75.1374 70.129 74.926 70.7454 74.6884 71.2274C74.425 71.7616 74.019 72.0795 73.4077 72.192C72.7761 70.9987 66.7209 53.1276 66.2897 51.8823L57.3962 26.3975C56.8068 24.698 56.1683 23.0094 55.6459 21.2821C55.1019 19.4826 54.0896 15.0426 52.5718 14.1067C51.7242 13.584 50.5342 14.0224 49.8884 14.4551C48.9623 15.0755 49.4189 15.9262 49.7645 16.8754C57.1268 37.0918 63.901 57.7233 71.2621 77.8444C71.6116 78.7999 71.8901 79.435 72.9369 79.621C73.833 79.7802 75.2431 79.6657 75.8238 79.1852C76.3039 78.7879 76.6303 77.564 76.8983 76.8006C78.0923 73.3989 79.3067 70.043 80.5148 66.6195C82.0806 62.183 83.8037 57.1531 85.4506 52.7403C85.7175 52.025 85.6197 52.0763 85.3735 51.3895C85.0639 50.5255 84.7649 49.6963 84.4605 48.8287C84.311 48.4026 84.1656 47.9922 84.0166 47.5828C83.9364 47.3625 83.8607 47.1532 83.7918 46.9523C83.7583 46.855 83.7263 46.7515 83.6839 46.6374L83.5128 46.3137Z" fill="black"/>
<path fill-rule="evenodd" clip-rule="evenodd" d="M125.728 14.8424L125.203 16.6085C125.501 16.4646 125.749 16.2305 126.009 16.0505C134.056 10.478 142.783 13.8623 150.057 11.2199C152.796 10.2248 154.247 8.72803 155.673 6.88804C157.082 5.06905 158.83 2.3795 161.623 3.01161C164.005 3.55073 165.57 6.37322 165.093 9.31186C164.429 13.4005 161.279 15.7048 158.154 17.3749C156.061 18.4937 155.175 18.4121 155.663 19.5021C156.705 19.5848 157.084 19.0216 157.84 18.8046C157.783 19.3718 157.712 19.4205 157.864 19.9935C159.21 19.9108 158.149 18.5555 159.126 18.1184C159.045 18.7195 158.812 19.2928 159.163 19.8391L159.601 19.7931C159.949 19.2305 159.82 18.2525 160.066 17.6798C160.241 17.2738 162.4 16.2154 163.595 14.6701C163.806 14.3971 163.949 14.0943 164.228 13.9706C165.142 15.4106 165.037 16.7096 164.169 18.252C162.708 20.8476 159.466 23.7107 156.585 24.8151C155.957 25.0555 154.635 25.0582 155.126 25.9994C155.954 26.6315 158.452 25.1843 159.075 24.8186C159.653 24.4796 160.233 24.0726 160.661 23.7161C161.102 23.348 161.678 22.7541 162.087 22.5103C162.287 22.8958 162.395 23.9626 162.396 24.4717C162.399 26.1684 160.927 27.4694 159.781 28.3856C159.327 28.7489 159.028 29.0903 158.616 29.4686C157.759 30.2558 155.796 31.8182 154.687 32.0793C154.833 31.1984 155.284 31.4919 154.936 30.3443C153.716 30.551 154.286 32.0182 153.535 32.3901C153.713 31.7876 153.914 31.7203 153.859 30.9563C153.006 30.7803 152.692 31.9136 152.589 32.6082C152.164 32.6762 151.569 32.7505 151.653 33.2878C151.728 33.769 152.248 33.8192 152.749 33.7573C154.395 33.5534 156.1 32.7469 157.357 31.8263C157.828 31.4819 158.926 30.5696 159.265 30.417C159.229 33.2774 157.922 35.6869 156.494 37.0849C155.449 38.1082 153.544 39.3294 151.844 39.4817C150.949 39.5622 150.635 39.0564 149.921 39.3261C149.732 40.4575 150.873 40.7051 151.902 40.6031C153.137 40.4803 153.845 39.9322 154.454 39.8592C154.517 41.4579 154.02 42.9026 153.305 43.9425C152.806 44.6689 151.501 45.9858 150.165 46.1146C150.086 45.3258 149.908 44.7633 149.553 44.1855C149.245 43.6834 148.696 42.9995 148.043 43.5744C147.845 44.6927 149.947 45.0418 148.781 47.6179C148.221 48.8576 147.227 49.7511 146.003 50.3499C143.637 51.5071 139.11 51.7113 136.142 51.3948C136.33 50.6941 137.824 49.4645 137.207 48.4949C136.799 48.5933 136.696 48.6474 136.525 49.0158L135.093 51.2909C134.682 51.3105 133.919 51.1597 133.6 50.9156C133.907 50.0592 134.67 49.9153 134.557 48.8365C134.505 48.8303 134.298 48.8224 134.289 48.8207C134.043 48.7713 134.214 48.8633 134.055 48.7245C134.679 48.0305 135.007 45.8115 134.833 44.6229C134.229 40.4917 129.339 38.1158 125.777 40.0414C123.902 41.0554 121.874 43.6742 123.245 46.6741C124.732 49.9281 129.517 48.1546 128.512 45.9655C127.278 45.9522 128.006 46.6865 126.921 47.1997C126.156 47.5615 125.272 47.4295 124.789 46.9533C123.832 46.0103 123.475 44.4064 124.316 42.9184C125.631 40.592 129.129 39.5576 131.86 41.588C134.268 43.378 134.49 46.6424 132.494 49.2259C131.212 50.8859 128.537 52.9339 125.211 53.0462C125.399 52.3465 125.761 52.3296 125.803 51.3916C124.871 51.5266 124.611 52.2124 124.345 53.0597L123.975 53.0472C124.04 52.5875 124.487 52.281 124.525 51.5142C123.523 51.2939 123.413 52.4375 122.995 52.9628C121.285 53.1298 118.554 51.5521 117.629 50.8239C117.231 50.5102 117.02 50.2535 116.682 49.8876C116.385 49.5657 116.057 49.2808 115.767 48.9156C115.096 48.0735 114.449 46.7807 114.317 46.64C114.121 46.8696 113.832 47.8035 113.818 48.0412L115.218 49.9593C116.877 51.8873 118.829 53.2311 121.486 53.8628C123.337 54.303 125.828 54.2591 127.601 53.7605C128.052 53.6338 128.466 53.5103 128.866 53.3496C129.265 53.1893 129.656 52.9743 130.046 52.7846C130.943 52.3482 131.443 51.7566 132.094 51.4186C132.502 51.687 133.138 52.0614 133.644 52.1959C135.008 52.5583 136.582 52.5472 138.095 52.5655C138.525 52.5707 138.697 52.6439 139.189 52.6412L141.531 52.5688C142.688 52.5089 144.514 52.1743 145.544 51.7677C147.59 50.9599 149.047 49.9046 149.912 47.7944C150.244 46.9846 150.098 47.4641 151.406 46.8909C152.012 46.6252 153.126 45.8866 153.507 45.4337C153.632 45.2856 153.624 45.2628 153.766 45.1132C154.847 43.9751 155.603 41.9109 155.58 40.3497C155.573 39.9079 155.462 39.6485 155.43 39.2745C156.45 39.0411 158.416 36.7263 158.966 35.634C160.01 33.5637 160.274 32.444 160.326 29.855C160.334 29.429 160.504 29.321 160.889 28.9716C161.433 28.4784 162.153 27.7876 162.542 27.2177C164.617 24.1819 162.417 22.1978 163.495 21.0396L164.844 19.3467C165.307 18.5729 165.774 17.7921 165.883 16.7739C166.108 14.6527 165.473 14.0987 164.867 12.9742C165.137 12.473 165.31 12.2206 165.537 11.6197C165.717 11.1416 165.916 10.6552 166.033 10.0955C166.255 9.04102 166.28 7.36895 166.007 6.32184C165.506 4.40257 164.126 2.42672 162.134 1.93437C159.427 1.26544 157.495 2.85636 155.993 4.68772L154.594 6.40378C151.575 10.1791 147.952 11.2768 142.92 11.2486L137.873 11.3928C137.531 11.4109 137.352 11.4536 136.921 11.4637C134.499 11.5201 130.625 12.3652 128.412 13.3811C128.145 13.5035 127.944 13.5738 127.704 13.6919C126.976 14.0502 126.058 14.6731 125.728 14.8424Z" fill="black" fill-opacity="0.28"/>
<path fill-rule="evenodd" clip-rule="evenodd" d="M58.7444 46.7189C58.7552 46.3585 58.4264 45.6349 58.3066 45.2762C58.1208 45.4303 57.827 46.0948 57.6056 46.4665C56.9709 47.5318 55.9006 48.6864 54.9759 49.4833C54.1658 50.1818 51.1682 51.8255 49.5299 51.6178C49.0301 51.0558 49.0793 50.1146 48.0158 50.1907C47.9661 50.8456 48.3974 51.2128 48.547 51.6715L48.1789 51.7156C47.8575 50.8515 47.6716 50.2464 46.7262 50.0948C46.7342 50.9961 47.1096 51.0226 47.3093 51.7084C42.9054 51.5096 38.3392 47.8478 38.6636 44.0141C38.7864 42.5605 39.7961 41.1535 40.6445 40.5769C45.7037 37.1388 50.9856 42.7931 47.6672 45.823C47.1233 46.3194 46.2405 46.3409 45.5299 45.9813C44.5539 45.487 45.1374 44.7083 44.0241 44.8286C42.819 46.73 47.7905 48.8389 49.2945 45.4828C50.6183 42.5288 48.5728 39.9526 46.6923 39.0276C43.0998 37.2601 38.2341 39.4998 37.6913 43.5591C37.4351 45.4754 37.9868 46.2557 38.4835 47.633C38.2143 47.5862 38.1988 47.5407 37.9719 47.6521C37.8561 48.7054 38.7449 48.8612 38.9217 49.6619C38.5686 49.8595 37.8679 50.0074 37.4098 50.0104C37.1893 49.5799 36.7617 49.0061 36.47 48.5638C35.8492 47.6229 35.9604 47.3484 35.2907 47.2964C34.7846 48.4877 36.4283 49.599 36.3344 50.1134C32.9603 50.2405 29.4776 50.3734 26.6226 49.1163C25.3254 48.5452 24.4444 47.6873 23.8293 46.5529C22.5357 44.1679 24.5443 43.5896 24.5363 42.6277C24.3092 41.7953 22.7381 42.293 22.378 44.959C21.374 44.9347 19.8961 43.758 19.2817 42.9065C18.5579 41.9034 18.0489 40.4677 18.0962 38.8831C18.9831 39.0434 19.5505 39.5102 20.662 39.6105C21.7081 39.7049 22.7854 39.4793 22.6237 38.3403C21.4674 38.0359 21.6345 39.1082 18.8722 37.9955C15.6223 36.6865 13.3885 33.5764 13.2873 29.7053C13.5677 29.7823 14.6273 30.6642 14.9762 30.9141C15.5134 31.2991 16.115 31.6846 16.7837 32.0091C17.3096 32.2644 21.2648 33.9498 20.8556 32.1622C20.4711 31.7837 20.3605 32.0036 20.0095 31.7857C19.5936 31.1413 19.8054 30.1491 18.6925 30.1919C18.6357 31.0199 18.8482 30.9785 18.9998 31.5984C18.5774 31.3454 18.6393 30.954 18.4872 30.4812C18.3407 30.025 18.148 29.6973 17.6658 29.6334C17.1834 30.2699 17.7073 30.6913 17.8721 31.2887C16.9918 31.1755 14.6035 29.4415 13.8999 28.7414C12.5196 27.3681 11.4817 26.9982 10.6359 25.4872C9.96325 24.2856 10.1305 23.3625 10.4445 21.9689C10.8705 22.2047 11.9749 23.4038 13.4908 24.2611C14.0965 24.6038 16.6189 26.0155 17.4465 25.3971C17.8188 24.4258 16.6455 24.4829 15.9887 24.2496C13.2519 23.2773 9.79817 20.3177 8.41916 17.9024C7.74706 16.725 7.22374 14.7525 8.38418 13.7096C8.91877 14.1359 9.36422 15.2759 11.9351 16.8179C12.3197 17.0485 12.4543 17.0452 12.5612 17.5735C12.8427 18.9657 12.5828 19.4385 13.4357 19.3911C13.6684 18.6907 13.519 18.4431 13.4255 17.7201C14.3579 18.1048 13.4093 19.5216 14.6693 19.535C14.8687 19.1306 14.7721 18.8505 14.7152 18.4066C15.3613 18.5944 16.0986 19.244 16.9011 19.052C17.3018 18.1308 16.6057 18.0493 15.9498 17.7555C12.1583 16.0572 7.95195 13.4355 7.413 8.79391C7.08158 5.93983 8.91303 3.12307 11.4557 2.9596C14.1586 2.78582 15.7154 5.4085 17.2314 7.23781C21.2221 12.0529 26.0345 12.0233 32.3023 12.2317C39.1634 12.4599 43.767 13.2651 47.8932 16.7619C47.8057 16.198 47.5532 15.7516 47.4704 14.994C46.083 14.1868 46.2089 14.0578 44.3896 13.2235C43.9817 13.0367 43.6425 12.8846 43.1995 12.7415L40.673 11.9932C37.9113 11.3193 34.6817 11.1145 31.6976 11.118L28.502 11.0266C28.1382 10.9776 27.416 10.9317 27.0178 10.9053C23.8744 10.697 21.0967 9.56257 18.9619 7.47648C18.7756 7.29433 18.7537 7.23429 18.5942 7.04795C18.4498 6.87956 18.355 6.82271 18.2078 6.63788C17.9434 6.30613 17.6981 6.04583 17.4565 5.72498C15.5017 3.12911 12.6125 0.40052 9.09871 2.56069C7.83117 3.33997 6.77511 5.02912 6.51433 6.4824C6.1055 8.76053 6.51588 10.7874 7.50891 12.4121C7.86854 13.0005 7.3596 12.9339 6.94183 14.0081C6.08677 16.2064 7.06416 18.2759 8.47869 19.9254C9.20808 20.7758 9.57128 20.6976 9.29193 22.1301C9.19151 22.6448 9.11123 23.016 9.11394 23.6062C9.12235 25.4157 9.54431 25.9154 10.4403 27.1144C10.5709 27.2891 10.6481 27.3785 10.8264 27.5248C10.9954 27.6635 10.9163 27.6041 11.0502 27.7358C12.2963 28.9591 12.0929 28.3812 12.1964 29.4093C12.3706 31.1413 12.3601 32.3632 13.2311 34.0635C13.4228 34.4378 13.5947 34.8214 13.7947 35.1607C14.3517 36.1065 15.6661 37.434 16.6119 38.0643C16.8136 38.1988 16.968 38.2706 17.1542 38.393C16.9256 38.8608 16.9713 39.9209 17.069 40.4863C17.5086 43.0293 19.4414 45.3614 22.0106 46.0407C22.9579 46.2911 22.3358 46.7691 23.4897 48.1051C25.136 50.0117 27.3075 50.8294 29.8906 51.1496C30.9454 51.2802 33.6097 51.4068 34.4549 51.2931C35.7351 51.1207 37.6894 51.5011 39.6639 50.5951C40.6737 50.1317 40.1167 49.8368 41.4707 50.83C43.2337 52.123 45.7447 52.8182 47.9196 52.8226C49.0058 52.8246 50.1279 52.7073 51.0476 52.5161C51.877 52.3434 52.8107 52.0001 53.5261 51.6485C54.682 51.0805 55.6189 50.3943 56.4911 49.5363L57.2987 48.6784C57.75 48.1544 58.0154 47.8789 58.3965 47.2445L58.7444 46.7189Z" fill="black" fill-opacity="0.28"/>
<path fill-rule="evenodd" clip-rule="evenodd" d="M88.6555 7.3822C88.3131 7.50819 87.7481 7.89791 87.5087 8.13947C87.3643 8.28528 87.1912 8.43328 87.0397 8.61487C86.9088 8.77193 86.7882 9.00425 86.5836 9.12235C86.5226 9.35299 86.4602 9.48855 86.2877 9.61135L86.0657 9.31301C85.7386 8.97049 85.5513 8.61117 85.1844 8.2401C84.8532 7.90547 84.4454 7.74101 84.0678 7.40807C83.916 7.45628 83.6842 7.30913 83.4598 7.25504C82.5918 7.0464 81.9285 7.19087 81.1818 7.52616C80.9109 7.64778 80.3146 8.08622 80.1339 8.30544C79.8006 8.70961 79.6505 8.91153 79.405 9.39431C78.5816 11.0128 78.8384 13.8825 79.5551 15.4337C80.0078 16.4134 81.0315 17.7754 81.8294 18.5436C82.171 18.8725 82.3784 19.1518 82.7173 19.4782L84.494 21.3467C84.6449 21.5133 84.7854 21.6091 84.9339 21.7818L85.7919 22.7455C86.0198 23.0064 86.0354 22.9431 86.2137 23.2703C86.5945 23.0225 86.7709 22.7008 87.0817 22.3882C87.9134 21.5515 88.8938 20.4094 89.7469 19.5859C89.9024 19.4359 90.0489 19.3126 90.1876 19.1515C91.4971 17.6294 92.8478 16.5383 93.4076 14.3003C93.5406 13.769 93.5548 13.3621 93.625 12.714C93.8962 10.2087 92.9133 7.56564 90.2663 7.18364C89.5091 7.07429 89.1762 7.26629 88.6555 7.3822Z" fill="#FE7788"/>
<path fill-rule="evenodd" clip-rule="evenodd" d="M88.984 5.69811L90.1013 4.83284C94.1438 2.04346 98.7131 3.94342 98.6746 8.11789C98.6583 9.88981 97.3398 12.3786 96.5784 14.2176C95.7728 16.1633 94.9512 18.066 94.1029 20.0004C92.4331 23.809 90.8313 27.6925 89.1806 31.5167C88.8461 32.2917 86.8304 36.8282 86.959 37.4247C87.0589 37.8881 89.11 43.3314 89.1932 43.42L100.363 13.3651C100.727 12.3822 101.375 10.9906 101.589 10.0219C102.155 7.46183 100.9 4.49132 99.6599 3.03882C97.4031 0.395038 93.5244 -1.04383 90.6523 2.73649C90.1515 3.39576 89.2544 4.77865 88.984 5.69811Z" fill="black"/>
<path fill-rule="evenodd" clip-rule="evenodd" d="M80.2371 3.02333C79.8558 3.43358 78.5289 2.43289 77.5508 2.38199C78.2511 1.414 80.2579 1.59846 80.2371 3.02333Z" fill="#FEFEFE" fill-opacity="0.77"/>
<path fill-rule="evenodd" clip-rule="evenodd" d="M90.9826 3.02331C91.3639 3.43359 92.6909 2.43299 93.6689 2.38198C92.9687 1.414 90.9618 1.59848 90.9826 3.02331Z" fill="#FEFEFE" fill-opacity="0.77"/>
<path fill-rule="evenodd" clip-rule="evenodd" d="M86.2805 23.2703L87.7622 21.6483C87.8919 21.5235 88.114 21.2596 88.2663 21.1131L89.7917 19.5237C89.8429 19.4649 89.8654 19.4514 89.9164 19.393C90.0514 19.2383 90.2755 19.0293 90.4262 18.8642L91.2902 17.9189C91.459 17.7384 91.6177 17.555 91.7721 17.3572C91.9234 17.1632 92.0739 16.9707 92.2235 16.7588C92.7756 15.9769 93.2713 15.0578 93.5066 13.7443C93.6252 13.0809 93.6736 12.3737 93.6681 11.6718C93.6625 10.9625 93.5388 10.3672 93.3331 9.79149C92.7484 8.15581 91.3336 7.14449 89.8408 7.15293C88.9275 7.15799 88.0698 7.54496 87.3919 8.20342C86.6326 8.94073 86.3695 9.62569 86.2805 9.7253L85.893 9.06921C85.7886 8.91084 85.5454 8.59529 85.4352 8.47913C85.2647 8.29932 85.1022 8.12339 84.9082 7.97144C84.7343 7.83519 84.5173 7.67243 84.2992 7.56168C83.286 7.0469 82.1715 6.99338 81.1441 7.53146C80.2974 7.97482 79.5989 8.77493 79.232 9.77967C79.0246 10.3478 78.9004 10.9553 78.8933 11.6554C78.886 12.3556 78.9358 13.0836 79.0544 13.7443C79.2086 14.6028 79.5065 15.4281 79.9176 16.1069L80.3323 16.7485C80.3686 16.8032 80.4038 16.8463 80.4395 16.9011L80.6647 17.1919C80.839 17.4212 81.3981 18.0918 81.6262 18.3182L82.1967 18.9231C82.2218 18.9496 82.2343 18.9702 82.2595 18.9955L82.761 19.5172C82.7858 19.5454 82.7965 19.5515 82.8224 19.5763C82.8486 19.6017 82.8602 19.6209 82.8864 19.6476L83.272 20.0443C83.3174 20.0969 83.3429 20.1148 83.397 20.1749C83.421 20.2015 83.4345 20.2096 83.4581 20.2345L83.714 20.5049C83.7401 20.5318 83.7568 20.5424 83.7828 20.5718L84.6604 21.5007C84.8859 21.72 85.1887 22.0837 85.416 22.3127C85.4623 22.3594 85.49 22.402 85.5349 22.4503C85.5788 22.4972 85.6199 22.5294 85.6607 22.5809L86.0317 22.9946C86.1062 23.0724 86.1705 23.1746 86.2805 23.2703Z" fill="#FF7788"/>
<path d="M0.984375 76.4204C0.984375 76.187 1.01351 76.0121 1.0718 75.8955L19.7803 15.4431C20.13 14.3933 20.9459 13.8684 22.2282 13.8684C23.5104 13.8684 24.3263 14.3933 24.676 15.4431L43.2097 75.8955C43.2097 75.9539 43.2097 76.0413 43.2097 76.1579C43.2681 76.2163 43.2972 76.3038 43.2972 76.4204C43.2972 76.9453 43.0349 77.4118 42.5103 77.8202C41.9858 78.1701 41.4029 78.3451 40.7619 78.3451C39.8293 78.3451 39.2466 77.9076 39.0134 77.0328L34.7297 63.1226H9.55184L5.35553 77.0328C5.06413 77.9076 4.42301 78.3451 3.43222 78.3451C2.79112 78.3451 2.2083 78.1701 1.68376 77.8202C1.21751 77.4702 0.984375 77.0037 0.984375 76.4204ZM10.6883 59.0983H33.5058L22.2282 21.7421L10.6883 59.0983ZM140.553 76.4204V16.318C140.553 15.0348 141.252 14.3933 142.651 14.3933H173.773C174.997 14.3933 175.609 15.0641 175.609 16.4055C175.609 16.9888 175.434 17.5137 175.084 17.9802C174.734 18.3885 174.297 18.5926 173.773 18.5926H144.924V44.3133H158.824C159.349 44.3133 159.786 44.5174 160.135 44.9257C160.485 45.334 160.66 45.8296 160.66 46.4129C160.66 47.6961 160.048 48.3376 158.824 48.3376H144.924V74.1458H173.773C174.297 74.1458 174.734 74.3791 175.084 74.8457C175.434 75.254 175.609 75.7496 175.609 76.3329C175.609 77.6743 174.997 78.3451 173.773 78.3451H142.651C141.252 78.3451 140.553 77.7036 140.553 76.4204Z" fill="black"/>
</svg>
