<svg width="237" height="69" viewBox="0 0 237 69" fill="none" xmlns="http://www.w3.org/2000/svg">
<g filter="url(#filter0_dd_511_136)">
<rect x="9.45117" y="8" width="215.819" height="47.1174" rx="23.5587" fill="#FF7788"/>
</g>
<path fill-rule="evenodd" clip-rule="evenodd" d="M30.1304 40.9641C35.453 40.843 38.4415 40.1897 41.2249 37.058C43.3624 34.6528 44.2727 29.7383 44.1599 25.6102C38.0105 27.2458 30.3623 33.5517 30.1304 40.9641ZM30.6494 21.8039C32.6014 19.2278 40.9217 13.2584 46.1748 12.5505C45.4627 18.5557 45.0764 14.9601 45.0527 24.2865C47.5767 23.7766 52.3188 22.0696 54.7869 22.9462C54.905 23.6885 50.1905 35.346 49.4578 36.7311C48.3506 38.8246 46.5902 40.7943 44.9449 42.0162C42.9286 43.5136 40.5497 43.8259 37.6623 44.1674C39.803 46.2161 44.0156 47.5702 47.8504 47.7622C47.317 48.9735 47.2346 48.6448 45.9984 49.3737C43.2763 50.9789 43.5402 53.1893 42.4028 55.1176C41.5651 54.5586 41.605 54.1587 40.9173 53.1058C36.843 46.8689 30.672 44.822 28.427 43.9222C27.0984 43.3898 23.518 39.6913 22.8003 38.3334C20.2747 33.5547 21.1994 28.8544 18.1971 25.2597C15.6816 22.2479 14.2236 22.5787 14.2494 20.9418C15.7758 19.9553 15.136 21.5535 18.2903 19.9023C22.8686 17.5056 25.086 22.7154 26.5306 24.2471C27.0651 24.8138 27.3487 24.762 27.338 24.9252C27.1906 27.1718 27.4872 26.4814 28.3225 25.1284C28.968 24.0827 29.7445 22.998 30.6494 21.8039Z" fill="#FEFEFE" fill-opacity="0.38"/>
<path fill-rule="evenodd" clip-rule="evenodd" d="M30.1304 40.9641C35.453 40.843 38.4415 40.1897 41.2249 37.058C43.3624 34.6528 44.2727 29.7383 44.1599 25.6102C38.0105 27.2458 30.3623 33.5517 30.1304 40.9641ZM30.6494 21.8039C32.6014 19.2278 40.9217 13.2584 46.1748 12.5505C45.4627 18.5557 45.0764 14.9601 45.0527 24.2865C47.5767 23.7766 52.3188 22.0696 54.7869 22.9462C54.905 23.6885 50.1905 35.346 49.4578 36.7311C48.3506 38.8246 46.5902 40.7943 44.9449 42.0162C42.9286 43.5136 40.5497 43.8259 37.6623 44.1674C39.803 46.2161 44.0156 47.5702 47.8504 47.7622C47.317 48.9735 47.2346 48.6448 45.9984 49.3737C43.2763 50.9789 43.5402 53.1893 42.4028 55.1176C41.5651 54.5586 41.605 54.1587 40.9173 53.1058C36.06 45.6703 28.2226 44.1901 27.6105 43.509C30.8323 42.0887 40.6101 49.7834 41.9379 53.3562L42.8225 51.8842C43.1496 51.17 43.1982 51.0004 43.6114 50.4735C44.1692 49.7621 44.9474 49.1268 45.6989 48.4921C44.0213 47.6339 36.3129 46.515 36.3638 43.2693C43.236 43.2109 46.0133 40.9922 48.4938 36.7144C50.4783 33.2922 52.4707 27.5707 53.7497 23.5679C51.3342 23.6842 46.9587 24.3458 45.0381 25.3615C44.5675 36.6198 41.2998 42.3238 29.2226 41.7156C29.4033 33.1879 37.2074 26.6479 44.2387 24.6701C44.3154 20.6156 44.2315 17.7192 44.9868 13.7307C38.9506 15.4134 33.185 19.8533 30.4241 23.4721C24.8717 30.7498 26.3541 35.763 27.4013 42.6227C25.7423 42.5555 23.538 39.7293 22.8003 38.3334C20.2747 33.5547 21.1994 28.8544 18.1971 25.2597C15.6816 22.2479 14.2236 22.5787 14.2494 20.9418C15.7758 19.9553 15.136 21.5535 18.2903 19.9023C22.8686 17.5056 25.086 22.7154 26.5306 24.2471C27.3944 25.1631 27.4938 24.4698 27.1751 25.6547C25.7527 25.7361 24.4274 22.1176 22.6386 20.8424C19.2654 18.4376 18.0587 22.4658 15.214 21.322C16.1157 22.5417 17.1631 22.161 19.0867 25.0051C21.7913 29.0038 21.2805 32.5799 22.9016 36.6571C23.6384 38.5103 24.9538 40.3783 26.1984 41.0299C24.7799 31.3807 25.8994 28.0725 30.6494 21.8039Z" fill="white"/>
<path fill-rule="evenodd" clip-rule="evenodd" d="M30.1311 40.9633C30.363 33.5508 38.0112 27.245 44.1606 25.6094C44.2734 29.7375 43.3631 34.652 41.2256 37.0572C38.4423 40.1889 35.4537 40.8421 30.1311 40.9633Z" fill="#FEFEFE" fill-opacity="0.38"/>
<path fill-rule="evenodd" clip-rule="evenodd" d="M11.8554 20.2429C11.3802 19.5131 11.0922 19.5609 10.3065 19.4497C8.73139 19.2268 9.07094 19.895 8.40783 18.7818L10.6954 18.4326C8.62247 17.6471 5.81914 18.103 4.37259 19.4994C7.75261 21.0131 8.24527 20.5053 11.8554 20.2429ZM13.6559 17.0352C15.9318 16.1021 14.564 13.615 13.5251 11.2943C13.4531 11.1334 13.1573 10.5225 13.1064 10.4424C13.0678 10.3817 13.0087 10.2959 12.9711 10.2424L12.6356 9.86721C12.6091 9.74868 12.5115 9.74678 12.4484 9.68761C11.9782 11.2098 11.4132 13.2704 12.0525 14.9751L12.9176 16.1977C12.9708 14.9722 12.6695 14.3698 13.1624 13.6049C14.0639 14.4574 13.8259 15.294 13.6559 17.0352ZM8.2956 13.4065C8.11187 10.4746 4.49946 9.33282 1.21947 9.07528C1.97513 11.3459 4.00369 13.8758 7.03087 13.711C6.35607 12.9745 4.93894 12.3115 4.42867 11.4423C5.83522 11.1131 7.30614 12.7164 8.2956 13.4065ZM11.8554 20.2429C11.4507 22.7311 3.38589 21.0862 2.51169 19.226C4.65924 17.8526 7.67939 16.8348 10.4465 17.1983C6.56595 12.3719 7.35485 15.7785 3.93601 13.9142C2.54935 13.1581 -0.0934963 10.1316 0.00209808 8.01675C2.45977 7.8142 6.75887 9.49035 8.02499 10.777C8.36621 11.1237 8.83561 11.7641 9.02987 12.3138C9.31162 13.1109 9.12346 12.6665 9.2481 13.3218C9.26851 13.4291 9.30743 13.7596 9.33339 13.8638L9.47839 14.3627C9.50803 14.4343 9.54849 14.5146 9.58335 14.5811C9.7511 14.9005 11.8906 17.478 12.1371 17.6949C11.7789 15.7853 10.8692 15.5446 10.9235 12.9198C10.9618 11.0649 11.4576 9.17117 12.5285 8.20233C13.3869 8.66702 12.987 8.24713 14.0918 10.4284C14.8968 12.0176 16.2786 15.0557 15.4731 16.8049C14.9161 18.0145 13.8341 17.6294 13.0928 17.7799C12.4173 20.0913 13.2788 19.831 13.7835 22.4271C14.08 23.9524 14.5981 26.9695 13.146 27.7043C12.966 26.29 13.237 24.8267 13.0559 23.3703C12.9887 22.8299 12.855 22.1176 12.6808 21.5862C12.2936 20.4051 12.1965 20.5106 11.8554 20.2429Z" fill="#A9BC5C"/>
<path fill-rule="evenodd" clip-rule="evenodd" d="M8.29492 13.4062C7.30547 12.716 5.83455 11.1128 4.42799 11.442C4.93826 12.3112 6.3554 12.9741 7.0302 13.7107C4.00301 13.8755 1.97446 11.3455 1.21879 9.07495C4.49878 9.3325 8.11119 10.4743 8.29492 13.4062Z" fill="#4A7416"/>
<path fill-rule="evenodd" clip-rule="evenodd" d="M13.6563 17.0343C13.8262 15.2931 14.0643 14.4565 13.1627 13.6041C12.6699 14.3689 12.9712 14.9713 12.9179 16.1969L12.0529 14.9742C11.4135 13.2696 11.9786 11.209 12.4488 9.68677C12.5118 9.74594 12.6094 9.74784 12.6359 9.86636L12.9714 10.2416C13.0091 10.295 13.0681 10.3809 13.1067 10.4416C13.1576 10.5216 13.4535 11.1325 13.5254 11.2934C14.5643 13.6141 15.9321 16.1013 13.6563 17.0343Z" fill="#4A7416"/>
<path fill-rule="evenodd" clip-rule="evenodd" d="M11.8555 20.242C8.24535 20.5044 7.75269 21.0123 4.37267 19.4986C5.81922 18.1021 8.62255 17.6462 10.6955 18.4317L8.40791 18.7809C9.07102 19.8941 8.73147 19.226 10.3066 19.4489C11.0923 19.56 11.3802 19.5122 11.8555 20.242Z" fill="#4A7416"/>
<path fill-rule="evenodd" clip-rule="evenodd" d="M20.6282 22.5548C19.2107 22.9053 18.8367 22.0932 19.5019 21.4481C20.1719 20.7984 20.9442 21.2748 20.6282 22.5548Z" fill="white"/>
<path d="M73.4678 38.8374C73.4678 38.5814 73.5558 38.3334 73.7318 38.0934C73.9238 37.8534 74.1318 37.7334 74.3558 37.7334C74.4998 37.7334 74.6838 37.8374 74.9078 38.0454C75.1318 38.2374 75.3638 38.4614 75.6038 38.7174C75.8438 38.9574 76.2198 39.1814 76.7318 39.3894C77.2438 39.5814 77.8198 39.6774 78.4598 39.6774C79.4998 39.6774 80.3158 39.4294 80.9078 38.9334C81.4998 38.4214 81.7958 37.6774 81.7958 36.7014C81.7958 35.8214 81.5238 35.1094 80.9798 34.5654C80.4358 34.0054 79.7798 33.5814 79.0118 33.2934C78.2438 33.0054 77.4678 32.7014 76.6838 32.3814C75.9158 32.0454 75.2598 31.5414 74.7158 30.8694C74.1718 30.1814 73.8998 29.3014 73.8998 28.2294C73.8998 27.3974 74.0598 26.6774 74.3798 26.0694C74.6998 25.4454 75.1238 24.9814 75.6518 24.6774C76.1958 24.3574 76.7558 24.1254 77.3318 23.9814C77.9078 23.8374 78.5238 23.7654 79.1798 23.7654C80.1718 23.7654 81.1158 23.9094 82.0118 24.1974C82.9238 24.4694 83.3798 24.8534 83.3798 25.3494C83.3798 25.5734 83.2998 25.8134 83.1398 26.0694C82.9798 26.3254 82.7718 26.4534 82.5158 26.4534C82.4518 26.4534 82.0838 26.3014 81.4118 25.9974C80.7398 25.6934 79.9958 25.5414 79.1798 25.5414C78.2038 25.5414 77.4118 25.7414 76.8038 26.1414C76.2118 26.5414 75.9158 27.1734 75.9158 28.0374C75.9158 28.7734 76.1878 29.3734 76.7318 29.8374C77.2758 30.2854 77.9318 30.6454 78.6998 30.9174C79.4838 31.1894 80.2598 31.5014 81.0278 31.8534C81.7958 32.2054 82.4518 32.7734 82.9958 33.5574C83.5398 34.3254 83.8118 35.3094 83.8118 36.5094C83.8118 38.1734 83.3318 39.4294 82.3718 40.2774C81.4118 41.1254 80.1398 41.5494 78.5558 41.5494C77.1318 41.5494 75.9238 41.2454 74.9318 40.6374C73.9558 40.0294 73.4678 39.4294 73.4678 38.8374ZM93.6747 26.5254C93.4347 26.2854 93.3147 26.0134 93.3147 25.7094C93.3147 25.4054 93.4347 25.1414 93.6747 24.9174C93.9147 24.6934 94.2107 24.5814 94.5627 24.5814C94.8987 24.5814 95.1867 24.6934 95.4267 24.9174C95.6667 25.1414 95.7867 25.4054 95.7867 25.7094C95.7867 26.0134 95.6667 26.2854 95.4267 26.5254C95.1867 26.7494 94.8987 26.8614 94.5627 26.8614C94.2267 26.8614 93.9307 26.7494 93.6747 26.5254ZM93.5787 40.6374V30.6774C93.5787 30.4694 93.6747 30.3014 93.8667 30.1734C94.0587 30.0454 94.2907 29.9814 94.5627 29.9814C94.8507 29.9814 95.0907 30.0454 95.2827 30.1734C95.4747 30.3014 95.5707 30.4694 95.5707 30.6774V40.6374C95.5707 40.8134 95.4667 40.9814 95.2587 41.1414C95.0667 41.2854 94.8347 41.3574 94.5627 41.3574C94.2907 41.3574 94.0587 41.2854 93.8667 41.1414C93.6747 40.9974 93.5787 40.8294 93.5787 40.6374ZM104.959 43.6134C104.959 42.4454 105.607 41.5734 106.903 40.9974C106.087 40.6934 105.679 40.1574 105.679 39.3894C105.679 38.6534 106.079 38.0614 106.879 37.6134C105.967 36.8774 105.511 35.8694 105.511 34.5894V33.7974C105.511 32.6294 105.903 31.6774 106.687 30.9414C107.471 30.2054 108.503 29.8374 109.783 29.8374C110.871 29.8374 111.807 30.1494 112.591 30.7734C113.071 29.7334 113.615 29.2134 114.223 29.2134C114.479 29.2134 114.687 29.2934 114.847 29.4534C115.007 29.5974 115.087 29.7654 115.087 29.9574C115.087 30.1974 114.951 30.3814 114.679 30.5094C114.135 30.6534 113.703 30.9894 113.383 31.5174C113.879 32.1094 114.127 32.8694 114.127 33.7974V34.5894C114.127 35.7414 113.719 36.6934 112.903 37.4454C112.087 38.1974 111.047 38.5734 109.783 38.5734C109.127 38.5734 108.535 38.4534 108.007 38.2134C107.607 38.4534 107.407 38.7254 107.407 39.0294C107.407 39.3334 107.591 39.5734 107.959 39.7494C108.327 39.9094 108.783 40.0134 109.327 40.0614C109.871 40.0934 110.463 40.1654 111.103 40.2774C111.743 40.3894 112.335 40.5334 112.879 40.7094C113.423 40.8854 113.879 41.1974 114.247 41.6454C114.615 42.0934 114.799 42.6614 114.799 43.3494C114.799 44.4854 114.343 45.3494 113.431 45.9414C112.535 46.5494 111.367 46.8534 109.927 46.8534C108.487 46.8534 107.295 46.5574 106.351 45.9654C105.423 45.3894 104.959 44.6054 104.959 43.6134ZM106.855 43.3974C106.855 44.0214 107.127 44.5174 107.671 44.8854C108.231 45.2694 108.975 45.4614 109.903 45.4614C110.799 45.4614 111.511 45.2694 112.039 44.8854C112.583 44.5174 112.855 44.0214 112.855 43.3974C112.855 43.1414 112.807 42.9174 112.711 42.7254C112.631 42.5334 112.495 42.3734 112.303 42.2454C112.111 42.1174 111.919 42.0054 111.727 41.9094C111.535 41.8294 111.287 41.7574 110.983 41.6934C110.679 41.6454 110.423 41.6054 110.215 41.5734C110.023 41.5574 109.759 41.5334 109.423 41.5014C109.103 41.4694 108.879 41.4454 108.751 41.4294C107.487 41.8454 106.855 42.5014 106.855 43.3974ZM107.455 34.5654C107.455 35.3334 107.663 35.9654 108.079 36.4614C108.511 36.9574 109.095 37.2054 109.831 37.2054C110.535 37.2054 111.103 36.9654 111.535 36.4854C111.967 35.9894 112.183 35.3574 112.183 34.5894V33.7974C112.183 33.0614 111.967 32.4454 111.535 31.9494C111.103 31.4534 110.527 31.2054 109.807 31.2054C109.071 31.2054 108.495 31.4534 108.079 31.9494C107.663 32.4294 107.455 33.0454 107.455 33.7974V34.5654ZM124.256 40.6374V30.6774C124.256 30.4694 124.344 30.3014 124.52 30.1734C124.712 30.0454 124.952 29.9814 125.24 29.9814C125.48 29.9814 125.688 30.0534 125.864 30.1974C126.056 30.3254 126.152 30.4854 126.152 30.6774V31.6614C126.408 31.1494 126.816 30.7174 127.376 30.3654C127.952 30.0134 128.616 29.8374 129.368 29.8374C130.504 29.8374 131.488 30.2934 132.32 31.2054C133.168 32.1014 133.592 33.1814 133.592 34.4454V40.6374C133.592 40.8614 133.488 41.0374 133.28 41.1654C133.088 41.2934 132.856 41.3574 132.584 41.3574C132.328 41.3574 132.096 41.2934 131.888 41.1654C131.696 41.0374 131.6 40.8614 131.6 40.6374V34.4454C131.6 33.7254 131.328 33.0774 130.784 32.5014C130.24 31.9254 129.6 31.6374 128.864 31.6374C128.176 31.6374 127.568 31.9014 127.04 32.4294C126.512 32.9414 126.248 33.6134 126.248 34.4454V40.6374C126.248 40.8134 126.144 40.9814 125.936 41.1414C125.728 41.2854 125.496 41.3574 125.24 41.3574C124.968 41.3574 124.736 41.2854 124.544 41.1414C124.352 40.9974 124.256 40.8294 124.256 40.6374ZM155.915 36.9414V30.7014C155.915 30.5094 156.011 30.3414 156.203 30.1974C156.411 30.0534 156.651 29.9814 156.923 29.9814C157.179 29.9814 157.403 30.0614 157.595 30.2214C157.803 30.3654 157.907 30.5254 157.907 30.7014V36.9414C157.907 37.6614 158.179 38.3094 158.723 38.8854C159.267 39.4614 159.915 39.7494 160.667 39.7494C161.403 39.7494 162.043 39.4694 162.587 38.9094C163.131 38.3334 163.403 37.6774 163.403 36.9414V30.6774C163.403 30.5014 163.499 30.3414 163.691 30.1974C163.899 30.0534 164.139 29.9814 164.411 29.9814C164.699 29.9814 164.931 30.0534 165.107 30.1974C165.299 30.3254 165.395 30.4854 165.395 30.6774V36.9414C165.395 38.1734 164.923 39.2534 163.979 40.1814C163.051 41.0934 161.947 41.5494 160.667 41.5494C159.371 41.5494 158.251 41.0934 157.307 40.1814C156.379 39.2534 155.915 38.1734 155.915 36.9414ZM175.592 46.1334V30.6774C175.592 30.4694 175.68 30.3014 175.856 30.1734C176.048 30.0454 176.28 29.9814 176.552 29.9814C176.824 29.9814 177.048 30.0454 177.224 30.1734C177.4 30.3014 177.488 30.4694 177.488 30.6774V31.6614C177.776 31.1494 178.2 30.7174 178.76 30.3654C179.32 30.0134 179.968 29.8374 180.704 29.8374C181.904 29.8374 182.92 30.2934 183.752 31.2054C184.6 32.1014 185.024 33.1814 185.024 34.4454V36.8934C185.024 38.1094 184.6 39.1894 183.752 40.1334C182.904 41.0774 181.92 41.5494 180.8 41.5494C180.096 41.5494 179.448 41.3734 178.856 41.0214C178.28 40.6534 177.856 40.2054 177.584 39.6774V46.1334C177.584 46.3094 177.48 46.4694 177.272 46.6134C177.08 46.7734 176.848 46.8534 176.576 46.8534C176.304 46.8534 176.072 46.7814 175.88 46.6374C175.688 46.4934 175.592 46.3254 175.592 46.1334ZM177.584 37.5414C177.584 37.9414 177.856 38.4134 178.4 38.9574C178.96 39.4854 179.592 39.7494 180.296 39.7494C181.016 39.7494 181.648 39.4614 182.192 38.8854C182.752 38.2934 183.032 37.6294 183.032 36.8934V34.4454C183.032 33.7254 182.752 33.0774 182.192 32.5014C181.648 31.9254 181 31.6374 180.248 31.6374C179.544 31.6374 178.92 31.9014 178.376 32.4294C177.848 32.9414 177.584 33.6134 177.584 34.4454V37.5414Z" fill="black"/>
<defs>
<filter id="filter0_dd_511_136" x="1.45117" y="0" width="234.818" height="68.1174" filterUnits="userSpaceOnUse" color-interpolation-filters="sRGB">
<feFlood flood-opacity="0" result="BackgroundImageFix"/>
<feColorMatrix in="SourceAlpha" type="matrix" values="0 0 0 0 0 0 0 0 0 0 0 0 0 0 0 0 0 0 127 0" result="hardAlpha"/>
<feOffset dx="2" dy="4"/>
<feGaussianBlur stdDeviation="4.5"/>
<feColorMatrix type="matrix" values="0 0 0 0 0 0 0 0 0 0 0 0 0 0 0 0 0 0 0.25 0"/>
<feBlend mode="normal" in2="BackgroundImageFix" result="effect1_dropShadow_511_136"/>
<feColorMatrix in="SourceAlpha" type="matrix" values="0 0 0 0 0 0 0 0 0 0 0 0 0 0 0 0 0 0 127 0" result="hardAlpha"/>
<feOffset dx="-4" dy="-4"/>
<feGaussianBlur stdDeviation="2"/>
<feColorMatrix type="matrix" values="0 0 0 0 1 0 0 0 0 1 0 0 0 0 1 0 0 0 0.74 0"/>
<feBlend mode="normal" in2="effect1_dropShadow_511_136" result="effect2_dropShadow_511_136"/>
<feBlend mode="normal" in="SourceGraphic" in2="effect2_dropShadow_511_136" result="shape"/>
</filter>
</defs>
</svg>
