<svg width="139" height="49" viewBox="0 0 139 49" fill="none" xmlns="http://www.w3.org/2000/svg">
<path d="M115.541 46.1889C115.541 45.843 115.63 45.5492 115.808 45.3071L134.071 11.7993H117.25C116.502 11.7993 116.128 11.3844 116.128 10.5544C116.128 9.72453 116.502 9.30957 117.25 9.30957H136.421C137.168 9.30957 137.542 9.62079 137.542 10.2432C137.542 10.6236 137.435 10.9867 137.222 11.3325L119.012 44.7365H137.008C137.756 44.7365 138.13 45.1515 138.13 45.9814C138.13 46.8113 137.756 47.2262 137.008 47.2262H116.662C115.915 47.2262 115.541 46.8804 115.541 46.1889Z" fill="black"/>
<path fill-rule="evenodd" clip-rule="evenodd" d="M72.3015 16.8965C71.8545 17.5401 70.2316 18.9582 69.3283 20.4594C68.4313 21.9501 67.7862 23.5071 67.9769 25.8094C68.1339 27.7049 69.0333 29.5808 69.9448 30.4932C70.5922 31.1412 70.6229 31.3292 71.709 31.939C72.1969 32.213 73.6226 32.8006 74.1457 32.6177C74.3248 32.3834 74.476 31.6971 74.8346 31.7346C74.7995 32.0171 74.5076 32.4746 74.3985 32.6779L74.956 32.7051C75.0389 32.2912 75.2507 31.7941 75.598 31.7099C75.5757 32.0542 75.3021 32.2197 75.1837 32.697C77.7392 32.7104 80.7684 30.4716 80.6799 27.8833C80.6444 26.8434 79.9692 25.916 79.4587 25.5446C76.3988 23.3179 73.0125 26.8303 75.0265 28.95C75.5158 29.465 76.4313 29.3189 76.8148 28.8541C77.0772 28.5359 76.8599 28.3779 77.2703 28.3943C77.7891 29.4265 74.7618 30.7718 74.1423 28.1548C73.6961 26.2701 75.2193 24.7638 76.5926 24.4793C79.4749 23.8825 82.337 26.7925 80.4235 30.1739C80.2184 30.5364 79.8909 30.8171 79.7468 31.1204C80.3204 31.3262 80.3154 30.1159 80.8536 30.1218C80.9077 30.5572 80.4425 30.6886 80.2063 31.3759C80.6114 31.4989 80.8385 31.6285 81.3536 31.6439L82.1801 30.3404C82.3197 30.0668 82.259 30.0197 82.4916 29.9458C82.7117 30.3249 81.8031 31.3235 81.6947 31.6884C84.1533 31.7661 88.2199 32.1138 89.553 29.3905C90.3726 27.7165 88.8934 27.1976 89.1496 26.8886C89.3946 26.5932 89.7223 27.079 89.8778 27.3398C90.0701 27.6622 90.1575 28.0594 90.1926 28.5355C91.8357 28.1897 93.0984 26.5994 92.9847 24.3978C92.4973 24.4977 92.1253 24.7659 91.5439 24.8698C91.115 24.9464 90.2225 24.9991 90.2598 24.3317C90.7061 24.1754 90.7087 24.8614 92.4712 24.126C94.5862 23.2436 95.8664 21.1162 95.8759 18.5754C95.2689 18.9567 94.7916 19.4991 93.89 20.0146C93.5616 20.2023 93.1204 20.4147 92.7569 20.5339C92.5243 20.6102 91.7699 20.8077 91.5317 20.7511C91.2318 20.6799 91.4398 20.7613 91.3215 20.6316C91.2091 20.3084 91.6005 20.3415 91.8483 20.2859C91.8848 20.0326 91.9294 19.8934 92.0285 19.6602C92.1376 19.4035 92.1362 19.3063 92.3929 19.2737C92.4322 19.6025 92.1853 19.8808 92.1012 20.2527C92.8419 20.1442 92.5431 19.5323 92.9002 19.0691C93.0314 18.8988 92.8807 19.0071 93.0682 18.9404C93.2384 19.2783 92.9695 19.3463 92.7975 20.0577C93.7508 19.817 95.1363 18.7234 95.8821 17.9265C96.205 17.5816 96.8806 17.3006 97.4481 16.2661C97.9866 15.2847 97.6234 14.8436 97.5595 13.7736C96.9567 14.2001 96.7193 14.6161 95.6792 15.2751C95.3466 15.486 93.7508 16.3939 93.3469 16.0857C93.3161 15.7093 93.4163 15.777 93.7802 15.6909C94.5586 15.5065 95.8789 14.7198 96.4806 14.1656C97.4245 13.2965 98.2373 12.5912 98.8743 11.3501C99.3687 10.387 99.3379 9.28971 98.6733 8.67598C98.1676 9.20346 98.2858 9.38003 97.0643 10.3137C96.0594 11.0818 96.1372 10.6693 95.9889 11.7074C95.8781 12.4828 95.8851 12.2588 95.7458 12.3046C95.5946 12.0692 95.7984 11.4882 95.8247 11.1625C95.583 11.2334 95.39 11.3238 95.3039 11.6186C95.1376 12.1888 95.3473 12.2921 94.9915 12.392C94.9175 12.1447 95.0218 11.885 95.0615 11.5809C94.6448 11.7119 94.0853 12.1614 93.6705 12.1114C93.4967 11.7185 93.7367 11.7598 94.489 11.3831C95.6255 10.814 96.8905 10.0633 97.7296 9.20162C98.7794 8.12366 100.035 5.832 99.048 3.74959C98.1432 1.84044 96.107 1.41429 94.6089 3.11204C93.8042 4.02402 93.5407 4.48867 92.9771 5.15005C90.8729 7.619 87.8658 7.7248 84.9015 7.81644C81.0937 7.93416 78.0373 8.11073 75.1179 10.5437C74.2882 11.2352 73.252 12.6723 72.8058 13.8217C72.6148 14.314 72.4802 14.6898 72.3625 15.2517C72.1811 16.1173 72.153 16.2978 72.3015 16.8965Z" fill="#FEFEFE" fill-opacity="0.77"/>
<path fill-rule="evenodd" clip-rule="evenodd" d="M32.1222 16.1151C32.5692 16.7248 34.192 18.0682 35.0954 19.4905C35.9924 20.9027 36.6375 22.3777 36.4468 24.5589C36.2898 26.3546 35.3904 28.1318 34.4789 28.9961C33.8316 29.61 33.8008 29.7881 32.7147 30.3658C32.2268 30.6254 30.8011 31.1821 30.278 31.0088C30.0989 30.7869 29.9477 30.1366 29.5891 30.1721C29.6242 30.4399 29.9161 30.8732 30.0251 31.0659L29.4677 31.0916C29.3848 30.6996 29.173 30.2286 28.8256 30.1487C28.848 30.475 29.1216 30.6317 29.24 31.0839C26.6846 31.0967 23.6554 28.9757 23.7438 26.5236C23.7793 25.5385 24.4546 24.6598 24.965 24.308C28.0249 22.1984 31.4112 25.526 29.3972 27.5341C28.9078 28.0221 27.9924 27.8837 27.6089 27.4433C27.3464 27.1418 27.5638 26.9922 27.1534 27.0076C26.6346 27.9856 29.6619 29.26 30.2814 26.7808C30.7276 24.9954 29.2044 23.5683 27.8312 23.2989C24.9488 22.7334 22.0867 25.4902 24.0002 28.6936C24.2053 29.0371 24.5328 29.303 24.6769 29.5904C24.1032 29.7854 24.1083 28.6386 23.5701 28.6443C23.516 29.0569 23.9812 29.1812 24.2174 29.8324C23.8123 29.949 23.5852 30.0717 23.0701 30.0863L22.2436 28.8514C22.1039 28.5922 22.1647 28.5475 21.9321 28.4776C21.712 28.8367 22.6206 29.7827 22.7289 30.1285C20.2704 30.2021 16.2038 30.5315 14.8706 27.9514C14.0511 26.3655 15.5303 25.874 15.2741 25.5813C15.0291 25.3014 14.7014 25.7617 14.5459 26.0088C14.3536 26.3142 14.2662 26.6904 14.2311 27.1415C12.588 26.8139 11.3254 25.3073 11.4391 23.2215C11.9265 23.3162 12.2984 23.5702 12.8798 23.6687C13.3086 23.7414 14.2013 23.7912 14.1638 23.159C13.7176 23.0109 13.715 23.6608 11.9526 22.9641C9.8375 22.1281 8.55725 20.1127 8.54781 17.7056C9.15474 18.0668 9.63213 18.5807 10.5337 19.069C10.8621 19.2469 11.3034 19.448 11.6668 19.561C11.8995 19.6334 12.6538 19.8204 12.8921 19.7667C13.1918 19.6993 12.9839 19.7764 13.1021 19.6536C13.2146 19.3474 12.8232 19.3787 12.5754 19.3261C12.5389 19.0861 12.4944 18.9542 12.3953 18.7333C12.2861 18.4901 12.2876 18.3981 12.0308 18.3673C11.9915 18.6787 12.2384 18.9424 12.3225 19.2946C11.5818 19.1917 11.8806 18.6121 11.5235 18.1733C11.3923 18.0119 11.543 18.1145 11.3555 18.0513C11.1853 18.3715 11.4542 18.436 11.6262 19.1099C10.6729 18.8818 9.28737 17.8457 8.54152 17.0909C8.21876 16.7642 7.54309 16.4978 6.97556 15.5178C6.43712 14.5881 6.80036 14.1702 6.86421 13.1566C7.46696 13.5606 7.70447 13.9546 8.74445 14.5791C9.07712 14.7787 10.6729 15.639 11.0769 15.3469C11.1076 14.9904 11.0074 15.0546 10.6436 14.9729C9.86511 14.7982 8.54487 14.0529 7.94309 13.5279C6.99925 12.7045 6.18645 12.0364 5.54934 10.8605C5.05501 9.94823 5.08583 8.90866 5.75047 8.32723C6.2562 8.82696 6.138 8.99413 7.35943 9.8787C8.36427 10.6064 8.28656 10.2156 8.43481 11.199C8.54557 11.9336 8.53863 11.7215 8.67796 11.7647C8.82919 11.5419 8.62538 10.9914 8.59903 10.683C8.84074 10.7501 9.03371 10.8357 9.11975 11.115C9.28611 11.6552 9.07643 11.753 9.43218 11.8477C9.50626 11.6134 9.40194 11.3673 9.36229 11.0792C9.77891 11.2034 10.3384 11.6291 10.7532 11.5818C10.927 11.2096 10.687 11.2487 9.93476 10.8919C8.79815 10.3528 7.53323 9.64152 6.69417 8.82517C5.64433 7.80393 4.3888 5.63289 5.37573 3.66012C6.28049 1.85139 8.31672 1.44771 9.8148 3.05613C10.6195 3.92009 10.883 4.36029 11.4466 4.98689C13.5509 7.32589 16.558 7.42611 19.5222 7.51287C23.3301 7.62448 26.3864 7.79175 29.3058 10.0967C30.1355 10.7517 31.1717 12.1131 31.6179 13.202C31.809 13.6685 31.9434 14.0245 32.0612 14.5568C32.2427 15.3769 32.2707 15.5478 32.1222 16.1151Z" fill="#FEFEFE" fill-opacity="0.77"/>
<path fill-rule="evenodd" clip-rule="evenodd" d="M60.4685 43.4948C59.832 43.3003 59.7356 43.0899 59.5032 42.5078C59.3102 42.0247 59.1403 41.5525 58.9741 41.05C58.6549 40.0849 58.2815 39.1057 57.9397 38.1292L51.7488 20.6885C51.215 19.1947 50.0915 16.7678 49.4358 15.1222C48.3778 12.4669 47.0996 9.48739 45.9635 6.7994C45.527 5.76634 45.2264 4.70392 45.819 3.59825C46.7337 1.89137 48.9058 1.91934 50.5162 3.11143C50.6854 3.23673 50.9129 3.46511 51.0561 3.54666C50.6683 2.34059 49.5762 0.894069 48.4755 0.545304C45.933 -0.260228 42.8553 3.53128 43.9813 6.58541C44.4874 7.95796 44.987 9.34781 45.5054 10.7018C46.5378 13.3983 47.508 16.1717 48.4822 18.9105C49.4764 21.7054 50.4614 24.3946 51.4458 27.1867C53.3988 32.726 55.4418 38.1799 57.3773 43.6808C57.5987 44.3101 58.64 47.4354 58.9498 47.7068C59.3847 48.0877 60.7439 48.1584 61.2391 47.7945C61.6647 47.4818 61.9244 46.4911 62.1526 45.8657C63.1489 43.1351 64.1555 40.3795 65.1212 37.6C67.0405 32.0761 69.057 26.5609 70.9705 21.0231C72.1372 17.647 73.4361 14.0879 74.669 10.7302C74.8414 10.2604 75.4356 9.0398 75.1082 8.62559C74.9084 8.37288 73.7873 7.73351 73.0802 8.36875C72.6342 8.76959 72.3314 9.5058 72.0921 10.2208C71.6207 11.629 71.2138 13.0627 70.7252 14.4496C70.2361 15.8378 69.7562 17.1938 69.2643 18.5849C68.2858 21.3528 67.3115 24.1238 66.3319 26.8903C65.3476 29.6706 64.3605 32.3962 63.402 35.194C62.5588 37.6554 61.7691 40.0403 60.8562 42.4641C60.7339 42.7891 60.5514 43.1905 60.4685 43.4948Z" fill="black"/>
<path fill-rule="evenodd" clip-rule="evenodd" d="M50.5498 27.9887C50.3671 28.3359 46.1492 40.5629 45.6341 41.9778C45.5197 42.2917 45.3927 42.6619 45.25 42.9514C45.0918 43.2722 44.848 43.4631 44.4809 43.5307C44.1015 42.814 40.4649 32.081 40.2059 31.3331L34.8647 16.0274C34.5107 15.0067 34.1272 13.9926 33.8135 12.9552C33.4867 11.8745 32.8788 9.20791 31.9672 8.64581C31.4581 8.33186 30.7435 8.59514 30.3556 8.85504C29.7994 9.22762 30.0737 9.73856 30.2812 10.3086C34.7028 22.4502 38.7713 34.841 43.1923 46.9254C43.4022 47.4992 43.5694 47.8807 44.1981 47.9924C44.7363 48.088 45.5831 48.0192 45.9319 47.7307C46.2202 47.4921 46.4163 46.757 46.5772 46.2985C47.2943 44.2555 48.0236 42.2401 48.7492 40.184C49.6896 37.5195 50.7245 34.4986 51.7136 31.8484C51.8738 31.4188 51.8151 31.4496 51.6673 31.0371C51.4813 30.5182 51.3017 30.0202 51.1189 29.4991C51.0292 29.2432 50.9418 28.9968 50.8524 28.7509C50.8042 28.6186 50.7587 28.4929 50.7173 28.3722C50.6972 28.3138 50.678 28.2516 50.6525 28.1831L50.5498 27.9887Z" fill="black"/>
<path fill-rule="evenodd" clip-rule="evenodd" d="M75.9027 9.08783L75.5873 10.1485C75.7662 10.0621 75.9155 9.92151 76.0715 9.81341C80.9041 6.46666 86.1459 8.49919 90.5143 6.9122C92.1593 6.31459 93.0308 5.41566 93.887 4.3106C94.7335 3.21814 95.7828 1.60286 97.4602 1.98249C98.8909 2.30627 99.8311 4.00141 99.5444 5.76629C99.1457 8.22187 97.254 9.60577 95.3771 10.6088C94.1199 11.2807 93.588 11.2317 93.8813 11.8864C94.5068 11.936 94.7343 11.5978 95.1885 11.4675C95.1544 11.8081 95.1117 11.8374 95.2027 12.1814C96.0114 12.1318 95.3741 11.3178 95.9607 11.0553C95.9123 11.4163 95.7725 11.7606 95.9832 12.0888L96.2462 12.0611C96.455 11.7232 96.3777 11.1359 96.5257 10.7919C96.6305 10.5481 97.9273 9.91244 98.6449 8.98436C98.7718 8.82039 98.8572 8.63856 99.025 8.56424C99.5742 9.42909 99.5108 10.2092 98.9894 11.1356C98.1121 12.6944 96.165 14.414 94.4347 15.0772C94.0578 15.2216 93.2635 15.2232 93.5586 15.7885C94.0557 16.1682 95.5562 15.299 95.9304 15.0793C96.2775 14.8757 96.626 14.6313 96.8826 14.4172C97.1477 14.1961 97.4938 13.8394 97.7394 13.693C97.8594 13.9246 97.9244 14.5652 97.9249 14.871C97.9268 15.89 97.0425 16.6714 96.3545 17.2216C96.0816 17.4398 95.9018 17.6448 95.6546 17.872C95.1399 18.3448 93.9608 19.2832 93.2951 19.44C93.3824 18.9109 93.6533 19.0872 93.4446 18.3979C92.7118 18.5221 93.0539 19.4033 92.6033 19.6266C92.7098 19.2648 92.8308 19.2244 92.7977 18.7655C92.2853 18.6598 92.0969 19.3404 92.0348 19.7576C91.7797 19.7985 91.4222 19.8431 91.4726 20.1658C91.5177 20.4548 91.8302 20.4849 92.1308 20.4477C93.1197 20.3253 94.1436 19.8409 94.8987 19.288C95.1812 19.0812 95.8409 18.5333 96.0446 18.4416C96.0226 20.1595 95.2379 21.6066 94.3801 22.4463C93.7523 23.0608 92.6082 23.7943 91.5877 23.8857C91.0497 23.934 90.8615 23.6303 90.4326 23.7922C90.319 24.4717 91.0044 24.6205 91.6221 24.5592C92.3637 24.4855 92.789 24.1563 93.1549 24.1124C93.1927 25.0726 92.8942 25.9402 92.4652 26.5648C92.1654 27.001 91.3815 27.792 90.579 27.8693C90.5314 27.3955 90.4245 27.0577 90.2116 26.7107C90.0266 26.4092 89.6966 25.9984 89.3045 26.3437C89.1858 27.0153 90.448 27.225 89.7482 28.7722C89.4115 29.5167 88.8145 30.0533 88.0794 30.4129C86.6586 31.1079 83.9396 31.2306 82.1574 31.0405C82.2698 30.6197 83.1671 29.8812 82.7968 29.2989C82.5518 29.358 82.4897 29.3905 82.387 29.6117L81.5273 30.9781C81.2802 30.9899 80.8223 30.8993 80.6302 30.7527C80.8146 30.2384 81.273 30.1519 81.2054 29.504C81.174 29.5003 81.0496 29.4955 81.0445 29.4945C80.8965 29.4649 80.9992 29.5201 80.904 29.4367C81.2785 29.0199 81.4754 27.6873 81.3711 26.9734C81.0084 24.4923 78.0712 23.0653 75.9323 24.2218C74.806 24.8308 73.588 26.4036 74.4113 28.2053C75.3044 30.1596 78.1782 29.0945 77.5747 27.7798C76.8336 27.7718 77.2711 28.2128 76.6191 28.521C76.1595 28.7383 75.6289 28.659 75.3386 28.373C74.7637 27.8067 74.5495 26.8434 75.0546 25.9497C75.8444 24.5525 77.9452 23.9313 79.5854 25.1507C81.0315 26.2257 81.165 28.1863 79.9664 29.7379C79.1963 30.7348 77.59 31.9648 75.5921 32.0323C75.7053 31.6121 75.9222 31.6019 75.9477 31.0386C75.3882 31.1196 75.2318 31.5315 75.0723 32.0404L74.8497 32.0329C74.8892 31.7568 75.1571 31.5727 75.1801 31.1122C74.5785 30.9799 74.5121 31.6667 74.2615 31.9822C73.2346 32.0825 71.5939 31.135 71.0387 30.6976C70.7995 30.5092 70.6728 30.355 70.4699 30.1353C70.2914 29.942 70.0946 29.7708 69.92 29.5515C69.5176 29.0458 69.129 28.2694 69.0496 28.1849C68.9317 28.3227 68.7579 28.8836 68.75 29.0264L69.5905 30.1784C70.5868 31.3363 71.7595 32.1433 73.3547 32.5227C74.4664 32.7871 75.9629 32.7607 77.0278 32.4613C77.2984 32.3851 77.5472 32.311 77.7873 32.2145C78.0269 32.1182 78.2618 31.9891 78.4961 31.8752C79.0348 31.6131 79.3353 31.2578 79.7259 31.0548C79.971 31.2159 80.3528 31.4408 80.6568 31.5216C81.476 31.7392 82.4217 31.7326 83.3304 31.7436C83.5883 31.7467 83.6914 31.7907 83.9872 31.789L85.3939 31.7456C86.0887 31.7096 87.1854 31.5086 87.8039 31.2645C89.0326 30.7793 89.9075 30.1455 90.427 28.8782C90.6263 28.3918 90.5391 28.6798 91.3244 28.3355C91.6883 28.176 92.3577 27.7324 92.5865 27.4604C92.6613 27.3714 92.6567 27.3577 92.7419 27.2679C93.3909 26.5843 93.8453 25.3447 93.8311 24.407C93.8271 24.1417 93.7604 23.9859 93.7414 23.7613C94.3538 23.6211 95.5344 22.2309 95.8651 21.5749C96.4918 20.3314 96.6503 19.659 96.6813 18.1041C96.6865 17.8482 96.7888 17.7834 97.0199 17.5735C97.3463 17.2773 97.7788 16.8625 98.0126 16.5202C99.2587 14.6969 97.9376 13.5053 98.5848 12.8097L99.3951 11.793C99.673 11.3283 99.9538 10.8594 100.019 10.2478C100.154 8.97387 99.7729 8.64118 99.4091 7.96582C99.5712 7.6648 99.6751 7.51323 99.8111 7.15231C99.9193 6.8652 100.039 6.57305 100.109 6.23694C100.242 5.60363 100.257 4.59942 100.093 3.97055C99.7925 2.81787 98.9638 1.63121 97.7672 1.33552C96.1415 0.93377 94.9811 1.88925 94.079 2.98912L93.2391 4.01976C91.4261 6.28716 89.2498 6.94638 86.2278 6.92944L83.1967 7.01607C82.9916 7.02696 82.884 7.05257 82.6249 7.05862C81.1701 7.09251 78.8435 7.60006 77.5144 8.21017C77.3545 8.28369 77.2336 8.32594 77.0893 8.39684C76.652 8.61204 76.1006 8.98618 75.9027 9.08783Z" fill="black" fill-opacity="0.28"/>
<path fill-rule="evenodd" clip-rule="evenodd" d="M35.6735 28.2322C35.68 28.0158 35.4825 27.5812 35.4106 27.3658C35.299 27.4583 35.1226 27.8574 34.9896 28.0806C34.6084 28.7205 33.9656 29.4139 33.4103 29.8924C32.9237 30.312 31.1234 31.2991 30.1395 31.1744C29.8393 30.8369 29.8688 30.2716 29.2301 30.3173C29.2003 30.7107 29.4593 30.9312 29.5492 31.2067L29.3281 31.2331C29.135 30.7142 29.0234 30.3508 28.4556 30.2597C28.4604 30.801 28.6859 30.8169 28.8058 31.2288C26.1609 31.1094 23.4186 28.9102 23.6134 26.6078C23.6871 25.7348 24.2935 24.8897 24.8031 24.5434C27.8415 22.4786 31.0137 25.8745 29.0208 27.6941C28.6941 27.9923 28.1639 28.0052 27.7372 27.7892C27.151 27.4924 27.5014 27.0247 26.8328 27.0969C26.109 28.2389 29.0948 29.5054 29.9981 27.4899C30.7932 25.7157 29.5647 24.1685 28.4353 23.613C26.2777 22.5514 23.3555 23.8966 23.0294 26.3345C22.8756 27.4854 23.2069 27.954 23.5052 28.7812C23.3436 28.7531 23.3342 28.7258 23.198 28.7927C23.1284 29.4253 23.6622 29.5188 23.7684 29.9997C23.5563 30.1184 23.1355 30.2072 22.8604 30.209C22.7279 29.9505 22.4712 29.6059 22.2959 29.3403C21.9231 28.7752 21.9899 28.6103 21.5877 28.579C21.2837 29.2945 22.2709 29.9619 22.2145 30.2709C20.1881 30.3472 18.0964 30.427 16.3818 29.6721C15.6027 29.3291 15.0736 28.8138 14.7042 28.1325C13.9273 26.7001 15.1336 26.3528 15.1288 25.7752C14.9924 25.2752 14.0489 25.5741 13.8326 27.1753C13.2296 27.1607 12.342 26.454 11.973 25.9426C11.5383 25.3401 11.2326 24.4779 11.261 23.5262C11.7937 23.6225 12.1345 23.9028 12.802 23.963C13.4302 24.0198 14.0773 23.8843 13.9801 23.2002C13.2857 23.0174 13.386 23.6614 11.7271 22.9931C9.77527 22.2069 8.43365 20.3391 8.37287 18.0142C8.54129 18.0604 9.17764 18.5901 9.38718 18.7401C9.70982 18.9714 10.0711 19.2029 10.4728 19.3978C10.7886 19.5511 13.164 20.5633 12.9182 19.4898C12.6873 19.2624 12.6209 19.3945 12.4101 19.2636C12.1603 18.8766 12.2875 18.2807 11.6192 18.3064C11.585 18.8037 11.7126 18.7788 11.8037 19.1511C11.55 18.9992 11.5872 18.7641 11.4959 18.4802C11.4078 18.2062 11.2921 18.0094 11.0025 17.971C10.7128 18.3532 11.0274 18.6064 11.1264 18.9652C10.5977 18.8972 9.16335 17.8557 8.7408 17.4353C7.91185 16.6105 7.28848 16.3883 6.7805 15.4809C6.37653 14.7592 6.47699 14.2048 6.66558 13.3679C6.92143 13.5095 7.58467 14.2296 8.49508 14.7445C8.85885 14.9503 10.3738 15.7982 10.8708 15.4268C11.0944 14.8435 10.3898 14.8777 9.99531 14.7376C8.35163 14.1537 6.27738 12.3762 5.44918 10.9256C5.04553 10.2185 4.73123 9.03382 5.42817 8.40748C5.74923 8.66354 6.01676 9.34819 7.56076 10.2743C7.79174 10.4128 7.8726 10.4108 7.93678 10.7281C8.10585 11.5642 7.94975 11.8482 8.46202 11.8197C8.60174 11.399 8.51207 11.2504 8.45587 10.8161C9.01584 11.0472 8.44615 11.898 9.20289 11.9061C9.32267 11.6632 9.26461 11.495 9.23043 11.2284C9.61851 11.3412 10.0613 11.7313 10.5432 11.616C10.7839 11.0628 10.3659 11.0138 9.97193 10.8374C7.69483 9.81739 5.16858 8.24289 4.8449 5.45522C4.64586 3.74112 5.74579 2.04943 7.27289 1.95125C8.89615 1.84688 9.83118 3.42201 10.7416 4.52066C13.1384 7.41248 16.0286 7.39476 19.7929 7.51986C23.9135 7.65695 26.6784 8.14055 29.1565 10.2406C29.104 9.902 28.9523 9.63386 28.9026 9.17887C28.0694 8.69406 28.145 8.6166 27.0523 8.11557C26.8073 8.00336 26.6036 7.912 26.3376 7.82608L24.8202 7.37663C23.1616 6.9719 21.222 6.84891 19.4298 6.85102L17.5106 6.79612C17.292 6.76671 16.8583 6.73911 16.6192 6.7233C14.7313 6.59819 13.0631 5.91686 11.781 4.664C11.669 4.55461 11.6559 4.51854 11.5601 4.40663C11.4734 4.3055 11.4165 4.27136 11.328 4.16035C11.1692 3.96111 11.0219 3.80478 10.8768 3.61209C9.70284 2.05305 7.96763 0.414317 5.8573 1.71167C5.09604 2.17969 4.46179 3.19416 4.30517 4.06698C4.05964 5.43518 4.30611 6.65248 4.9025 7.62825C5.11849 7.9816 4.81283 7.94161 4.56192 8.58678C4.04839 9.90703 4.63539 11.1499 5.48493 12.1406C5.92299 12.6513 6.14112 12.6044 5.97335 13.4647C5.91304 13.7738 5.86482 13.9967 5.86645 14.3512C5.8715 15.438 6.12492 15.738 6.66305 16.4581C6.74148 16.5631 6.78783 16.6168 6.89492 16.7046C6.9964 16.7879 6.94888 16.7523 7.02931 16.8313C7.77774 17.5661 7.65557 17.2189 7.7177 17.8364C7.82236 18.8766 7.81602 19.6104 8.33911 20.6316C8.45428 20.8565 8.55753 21.0868 8.6776 21.2906C9.01216 21.8586 9.80153 22.6559 10.3696 23.0344C10.4907 23.1152 10.5834 23.1583 10.6953 23.2318C10.558 23.5128 10.5854 24.1495 10.6441 24.489C10.9081 26.0163 12.0689 27.4169 13.6119 27.8249C14.1809 27.9753 13.8073 28.2623 14.5002 29.0648C15.489 30.2098 16.7932 30.7009 18.3445 30.8932C18.978 30.9717 20.5781 31.0477 21.0857 30.9794C21.8546 30.8759 23.0283 31.1043 24.2141 30.5602C24.8206 30.2819 24.4861 30.1048 25.2993 30.7013C26.3581 31.4778 27.8661 31.8953 29.1724 31.898C29.8247 31.8992 30.4986 31.8288 31.051 31.7139C31.5491 31.6102 32.1099 31.404 32.5395 31.1929C33.2337 30.8517 33.7964 30.4396 34.3202 29.9243L34.8052 29.409C35.0763 29.0944 35.2357 28.9289 35.4646 28.5479L35.6735 28.2322Z" fill="black" fill-opacity="0.28"/>
<path fill-rule="evenodd" clip-rule="evenodd" d="M53.6388 4.60777C53.4332 4.68344 53.0938 4.9175 52.9501 5.06258C52.8633 5.15015 52.7594 5.23903 52.6684 5.34809C52.5898 5.44242 52.5174 5.58195 52.3945 5.65287C52.3578 5.79139 52.3203 5.87281 52.2168 5.94656L52.0834 5.76738C51.887 5.56167 51.7745 5.34587 51.5541 5.12301C51.3552 4.92204 51.1103 4.82327 50.8835 4.62331C50.7924 4.65227 50.6532 4.56389 50.5184 4.5314C49.997 4.4061 49.5987 4.49286 49.1502 4.69424C48.9876 4.76728 48.6294 5.0306 48.5209 5.16225C48.3208 5.40499 48.2306 5.52626 48.0831 5.81621C47.5886 6.78826 47.7428 8.51173 48.1733 9.44333C48.4452 10.0317 49.06 10.8497 49.5392 11.3111C49.7443 11.5086 49.8689 11.6764 50.0725 11.8724L51.1395 12.9946C51.2301 13.0947 51.3145 13.1522 51.4037 13.2559L51.919 13.8347C52.0559 13.9914 52.0652 13.9533 52.1723 14.1498C52.401 14.001 52.507 13.8078 52.6936 13.6201C53.1931 13.1176 53.7819 12.4316 54.2943 11.9371C54.3877 11.847 54.4757 11.7729 54.559 11.6762C55.3454 10.762 56.1566 10.1068 56.4928 8.76264C56.5727 8.44353 56.5812 8.19918 56.6234 7.80996C56.7863 6.30531 56.196 4.71795 54.6062 4.48853C54.1515 4.42285 53.9515 4.53816 53.6388 4.60777Z" fill="#FE7788"/>
<path fill-rule="evenodd" clip-rule="evenodd" d="M53.835 3.59614L54.506 3.07647C56.9338 1.40123 59.678 2.54231 59.6549 5.04941C59.6451 6.11359 58.8533 7.60834 58.396 8.71276C57.9121 9.88135 57.4187 11.0241 56.9093 12.1858C55.9064 14.4732 54.9444 16.8055 53.953 19.1023C53.7521 19.5677 52.5415 22.2922 52.6188 22.6505C52.6787 22.9288 53.9106 26.198 53.9606 26.2512L60.669 8.20079C60.8874 7.61049 61.2766 6.77473 61.4053 6.19295C61.7454 4.6554 60.9914 2.87136 60.2467 1.99902C58.8913 0.411218 56.5618 -0.45294 54.8369 1.81745C54.5361 2.21339 53.9974 3.04393 53.835 3.59614Z" fill="black"/>
<path fill-rule="evenodd" clip-rule="evenodd" d="M48.5821 1.98952C48.3531 2.23591 47.5562 1.63492 46.9688 1.60435C47.3893 1.02299 48.5946 1.13378 48.5821 1.98952Z" fill="#FEFEFE" fill-opacity="0.77"/>
<path fill-rule="evenodd" clip-rule="evenodd" d="M55.0353 1.98951C55.2643 2.23592 56.0612 1.63498 56.6486 1.60434C56.2281 1.02299 55.0228 1.13379 55.0353 1.98951Z" fill="#FEFEFE" fill-opacity="0.77"/>
<path fill-rule="evenodd" clip-rule="evenodd" d="M52.2124 14.1498L53.1023 13.1757C53.1802 13.1008 53.3136 12.9423 53.4051 12.8543L54.3212 11.8997C54.3519 11.8644 54.3655 11.8563 54.3961 11.8212C54.4771 11.7283 54.6117 11.6028 54.7023 11.5036L55.2212 10.9359C55.3225 10.8275 55.4179 10.7174 55.5106 10.5985C55.6014 10.482 55.6919 10.3664 55.7817 10.2392C56.1133 9.7696 56.411 9.21759 56.5523 8.4287C56.6235 8.0303 56.6526 7.60554 56.6493 7.18403C56.6459 6.75805 56.5716 6.40052 56.4481 6.05474C56.0969 5.07239 55.2472 4.46501 54.3507 4.47008C53.8022 4.47312 53.287 4.70553 52.8799 5.10098C52.4239 5.54379 52.2659 5.95517 52.2124 6.015L51.9797 5.62096C51.917 5.52585 51.7709 5.33633 51.7048 5.26657C51.6024 5.15858 51.5047 5.05292 51.3883 4.96166C51.2838 4.87983 51.1535 4.78208 51.0225 4.71557C50.414 4.4064 49.7447 4.37426 49.1276 4.69742C48.6191 4.96369 48.1996 5.44422 47.9793 6.04765C47.8547 6.38885 47.7801 6.75369 47.7758 7.17419C47.7714 7.59469 47.8013 8.03193 47.8726 8.4287C47.9652 8.94432 48.1441 9.43995 48.391 9.84768L48.6401 10.233C48.6618 10.2659 48.683 10.2917 48.7044 10.3247L48.8397 10.4993C48.9444 10.637 49.2801 11.0397 49.4171 11.1757L49.7598 11.539C49.7749 11.5549 49.7824 11.5673 49.7975 11.5825L50.0987 11.8958C50.1136 11.9128 50.12 11.9164 50.1355 11.9313C50.1513 11.9465 50.1582 11.9581 50.174 11.9741L50.4056 12.2124C50.4329 12.2439 50.4482 12.2547 50.4807 12.2908C50.4951 12.3068 50.5032 12.3117 50.5173 12.3266L50.671 12.489C50.6867 12.5052 50.6967 12.5115 50.7124 12.5292L51.2394 13.0871C51.3748 13.2188 51.5567 13.4372 51.6932 13.5747C51.721 13.6028 51.7377 13.6284 51.7647 13.6574C51.791 13.6855 51.8157 13.7049 51.8402 13.7358L52.063 13.9843C52.1077 14.031 52.1464 14.0924 52.2124 14.1498Z" fill="#FF7788"/>
<path d="M0.984375 46.0702C0.984375 45.93 1.00187 45.8249 1.03688 45.7549L12.2729 9.44844C12.4829 8.81794 12.9729 8.50269 13.743 8.50269C14.5131 8.50269 15.0031 8.81794 15.2131 9.44844L26.3441 45.7549C26.3441 45.79 26.3441 45.8425 26.3441 45.9126C26.3791 45.9476 26.3966 46.0002 26.3966 46.0702C26.3966 46.3854 26.2391 46.6656 25.9241 46.9108C25.609 47.121 25.259 47.2261 24.874 47.2261C24.3139 47.2261 23.9639 46.9634 23.8239 46.438L21.2512 38.0838H6.12983L3.6096 46.438C3.43459 46.9634 3.04955 47.2261 2.4545 47.2261C2.06947 47.2261 1.71944 47.121 1.40441 46.9108C1.12439 46.7007 0.984375 46.4205 0.984375 46.0702ZM6.81239 35.6669H20.5161L13.743 13.2315L6.81239 35.6669ZM84.8064 46.0702V9.97386C84.8064 9.20321 85.2264 8.81794 86.0665 8.81794H104.758C105.493 8.81794 105.86 9.22079 105.86 10.0264C105.86 10.3767 105.755 10.692 105.545 10.9722C105.335 11.2174 105.073 11.34 104.758 11.34H87.4316V26.7873H95.7798C96.0948 26.7873 96.3574 26.9098 96.5674 27.1551C96.7774 27.4003 96.8824 27.698 96.8824 28.0483C96.8824 28.8189 96.5149 29.2042 95.7798 29.2042H87.4316V44.7041H104.758C105.073 44.7041 105.335 44.8442 105.545 45.1244C105.755 45.3696 105.86 45.6673 105.86 46.0176C105.86 46.8232 105.493 47.2261 104.758 47.2261H86.0665C85.2264 47.2261 84.8064 46.8408 84.8064 46.0702Z" fill="black"/>
</svg>
