<svg width="65" height="56" viewBox="0 0 65 56" fill="none" xmlns="http://www.w3.org/2000/svg">
<path fill-rule="evenodd" clip-rule="evenodd" d="M35.6996 38.7881C41.8319 38.6471 45.275 37.8871 48.4818 34.2434C50.9445 31.445 51.9933 25.7271 51.8633 20.9241C44.7784 22.8271 35.9667 30.1638 35.6996 38.7881ZM36.2976 16.4956C38.5465 13.4984 48.1325 6.55313 54.1847 5.72949C53.3642 12.7163 52.9192 8.53291 52.8919 19.3841C55.7999 18.7908 61.2633 16.8048 64.1069 17.8246C64.243 18.6882 58.8112 32.2515 57.9671 33.8631C56.6915 36.2988 54.6633 38.5905 52.7676 40.0121C50.4447 41.7544 47.7039 42.1177 44.3773 42.5151C46.8436 44.8986 51.6971 46.4742 56.1152 46.6975C55.5007 48.1069 55.4058 47.7243 53.9815 48.5724C50.8452 50.4401 51.1494 53.0118 49.8389 55.2553C48.8738 54.6049 48.9197 54.1397 48.1274 52.9147C43.4333 45.6582 36.3235 43.2766 33.7371 42.2298C32.2063 41.6103 28.0813 37.3072 27.2544 35.7274C24.3446 30.1674 25.41 24.6986 21.9509 20.5163C19.0528 17.0122 17.373 17.397 17.4028 15.4926C19.1614 14.3448 18.4242 16.2042 22.0584 14.2831C27.3331 11.4946 29.8878 17.5561 31.5522 19.3382C32.168 19.9975 32.4948 19.9373 32.4825 20.1271C32.3126 22.741 32.6543 21.9378 33.6167 20.3635C34.3604 19.1469 35.255 17.8849 36.2976 16.4956Z" fill="#FEFEFE" fill-opacity="0.38"/>
<path fill-rule="evenodd" clip-rule="evenodd" d="M35.6996 38.7881C41.8319 38.6471 45.275 37.8871 48.4818 34.2434C50.9445 31.445 51.9933 25.7271 51.8633 20.9241C44.7784 22.8271 35.9667 30.1638 35.6996 38.7881ZM36.2976 16.4956C38.5465 13.4984 48.1325 6.55313 54.1847 5.72949C53.3642 12.7163 52.9192 8.53291 52.8919 19.3841C55.7999 18.7908 61.2633 16.8048 64.1069 17.8246C64.243 18.6882 58.8112 32.2515 57.9671 33.8631C56.6915 36.2988 54.6633 38.5905 52.7676 40.0121C50.4447 41.7544 47.7039 42.1177 44.3773 42.5151C46.8436 44.8986 51.6971 46.4742 56.1152 46.6975C55.5007 48.1069 55.4058 47.7243 53.9815 48.5724C50.8452 50.4401 51.1494 53.0118 49.8389 55.2553C48.8738 54.6049 48.9197 54.1397 48.1274 52.9147C42.5312 44.2637 33.5016 42.5414 32.7963 41.749C36.5083 40.0966 47.7735 49.0491 49.3033 53.206L50.3224 51.4933C50.6993 50.6624 50.7553 50.4651 51.2313 49.852C51.874 49.0243 52.7705 48.2852 53.6364 47.5467C51.7036 46.5482 42.8226 45.2464 42.8813 41.4701C50.7988 41.4022 53.9986 38.8207 56.8565 33.8437C59.1429 29.8619 61.4383 23.2051 62.912 18.548C60.129 18.6833 55.0879 19.453 52.875 20.6347C52.3329 33.7336 48.5681 40.3701 34.6537 39.6624C34.8619 29.7406 43.8532 22.1314 51.9541 19.8304C52.0425 15.113 51.9457 11.7431 52.816 7.10263C45.8615 9.06035 39.2189 14.2261 36.038 18.4364C29.6409 26.9039 31.3488 32.7367 32.5553 40.7178C30.6439 40.6396 28.1044 37.3514 27.2544 35.7274C24.3446 30.1674 25.41 24.6986 21.9509 20.5163C19.0528 17.0122 17.373 17.397 17.4028 15.4926C19.1614 14.3448 18.4242 16.2042 22.0584 14.2831C27.3331 11.4946 29.8878 17.5561 31.5522 19.3382C32.5474 20.404 32.6619 19.5973 32.2947 20.9759C30.656 21.0707 29.129 16.8606 27.0682 15.3769C23.1818 12.579 21.7915 17.2657 18.5141 15.9349C19.553 17.3539 20.7597 16.9111 22.9759 20.2201C26.092 24.8725 25.5035 29.0333 27.3712 33.777C28.2201 35.9331 29.7356 38.1065 31.1694 38.8646C29.5352 27.638 30.825 23.789 36.2976 16.4956Z" fill="black"/>
<path fill-rule="evenodd" clip-rule="evenodd" d="M35.6987 38.7882C35.9658 30.164 44.7774 22.8273 51.8623 20.9243C51.9923 25.7273 50.9435 31.4452 48.4808 34.2436C45.2741 37.8872 41.8309 38.6473 35.6987 38.7882Z" fill="#FEFEFE" fill-opacity="0.38"/>
<path fill-rule="evenodd" clip-rule="evenodd" d="M14.6449 14.6799C14.0974 13.8308 13.7657 13.8864 12.8604 13.757C11.0457 13.4977 11.4369 14.2751 10.6729 12.9799L13.3085 12.5736C10.9202 11.6597 7.69045 12.1902 6.02385 13.8149C9.91804 15.576 10.4856 14.9852 14.6449 14.6799ZM16.7194 10.9478C19.3414 9.86216 17.7655 6.96843 16.5686 4.26839C16.4857 4.08117 16.1449 3.3704 16.0863 3.27728C16.0417 3.20666 15.9737 3.10674 15.9304 3.04453L15.5438 2.60801C15.5133 2.4701 15.4009 2.46789 15.3282 2.39905C14.7865 4.17009 14.1354 6.56756 14.8721 8.55091L15.8687 9.97341C15.9301 8.54751 15.5829 7.84667 16.1508 6.95678C17.1895 7.94858 16.9152 8.92194 16.7194 10.9478ZM10.5436 6.72592C10.3319 3.31473 6.17002 1.98626 2.39107 1.68661C3.26169 4.32838 5.59883 7.27191 9.08651 7.08016C8.30906 6.22324 6.67635 5.45189 6.08846 4.4406C7.70898 4.05754 9.40366 5.92294 10.5436 6.72592ZM14.6449 14.6799C14.1787 17.5749 4.88705 15.661 3.87987 13.4967C6.3541 11.8988 9.83368 10.7146 13.0218 11.1376C8.55087 5.52218 9.45977 9.48563 5.52085 7.31664C3.92326 6.43684 0.878374 2.91564 0.988512 0.455038C3.82005 0.219374 8.77313 2.16954 10.2319 3.6665C10.625 4.06995 11.1658 4.81503 11.3896 5.45458C11.7142 6.38192 11.4974 5.86489 11.641 6.62729C11.6645 6.75219 11.7094 7.13671 11.7393 7.25799L11.9063 7.83836C11.9405 7.92166 11.9871 8.01516 12.0273 8.09247C12.2205 8.46415 14.6855 11.463 14.9695 11.7154C14.5569 9.49361 13.5087 9.21355 13.5713 6.15958C13.6154 4.00149 14.1867 1.79818 15.4204 0.670955C16.4094 1.21161 15.9487 0.723073 17.2216 3.26088C18.149 5.10993 19.741 8.64473 18.8129 10.6799C18.1712 12.0872 16.9247 11.6391 16.0705 11.8143C15.2923 14.5036 16.2849 14.2006 16.8664 17.2212C17.208 18.9958 17.8049 22.5062 16.1319 23.3611C15.9245 21.7156 16.2367 20.0131 16.0281 18.3186C15.9506 17.6898 15.7966 16.8611 15.5959 16.2428C15.1498 14.8687 15.0379 14.9914 14.6449 14.6799Z" fill="black"/>
<path fill-rule="evenodd" clip-rule="evenodd" d="M10.543 6.72583C9.403 5.92286 7.70832 4.05746 6.08779 4.44052C6.67569 5.4518 8.3084 6.22316 9.08585 7.08008C5.59816 7.27183 3.26103 4.3283 2.39041 1.68652C6.16936 1.98617 10.3313 3.31464 10.543 6.72583Z" fill="#C1DD9E"/>
<path fill-rule="evenodd" clip-rule="evenodd" d="M16.7182 10.9477C16.914 8.92181 17.1883 7.94846 16.1496 6.95665C15.5818 7.84654 15.9289 8.54738 15.8675 9.97329L14.8709 8.55078C14.1343 6.56744 14.7853 4.16996 15.327 2.39893C15.3997 2.46777 15.5121 2.46998 15.5426 2.60788L15.9292 3.04441C15.9725 3.10662 16.0406 3.20654 16.0851 3.27716C16.1437 3.37028 16.4845 4.08105 16.5675 4.26827C17.7644 6.96831 19.3403 9.86204 16.7182 10.9477Z" fill="#C1DD9E"/>
<path fill-rule="evenodd" clip-rule="evenodd" d="M14.6445 14.6799C10.4852 14.9852 9.91763 15.5761 6.02344 13.8149C7.69004 12.1902 10.9198 11.6597 13.3081 12.5737L10.6725 12.9799C11.4365 14.2751 11.0453 13.4978 12.86 13.7571C13.7653 13.8864 14.097 13.8308 14.6445 14.6799Z" fill="#C1DD9E"/>
<path fill-rule="evenodd" clip-rule="evenodd" d="M24.7499 17.3699C24.0123 17.2633 22.6859 16.8328 23.4523 16.0823C24.2241 15.3264 25.114 15.8807 24.7499 17.3699Z" fill="black"/>
</svg>
