<svg width="187" height="162" viewBox="0 0 187 162" fill="none" xmlns="http://www.w3.org/2000/svg">
<path fill-rule="evenodd" clip-rule="evenodd" d="M84.2927 112.901C66.3106 112.488 56.2139 110.259 46.8105 99.5744C39.589 91.3682 36.5135 74.6011 36.8946 60.517C57.6703 66.0974 83.5095 87.6114 84.2927 112.901ZM82.5393 47.5307C75.9445 38.7418 47.8348 18.3757 30.0875 15.9604C32.4933 36.4485 33.7982 24.1812 33.8783 56.0009C25.3511 54.2613 9.33019 48.4374 0.99175 51.4279C0.592574 53.9605 16.5206 93.7331 18.9958 98.459C22.7365 105.601 28.6838 112.322 34.2427 116.49C41.0545 121.599 49.0916 122.665 58.8464 123.83C51.6143 130.82 37.3821 135.44 24.4264 136.094C26.2283 140.227 26.5067 139.106 30.6832 141.592C39.88 147.069 38.9881 154.61 42.8309 161.189C45.661 159.282 45.5262 157.918 47.8496 154.326C61.6145 133.047 82.4631 126.063 90.0476 122.993C94.5364 121.177 106.633 108.559 109.057 103.926C117.59 87.6218 114.466 71.5853 124.609 59.3211C133.108 49.0456 138.033 50.1741 137.946 44.5896C132.789 41.2237 134.951 46.6764 124.294 41.0429C108.827 32.8659 101.335 50.6407 96.4544 55.8665C94.6489 57.7998 93.6906 57.6232 93.7267 58.1798C94.2249 65.8448 93.2228 63.4894 90.4007 58.8731C88.2199 55.3056 85.5965 51.6048 82.5393 47.5307Z" fill="#FEFEFE" fill-opacity="0.38"/>
<path fill-rule="evenodd" clip-rule="evenodd" d="M84.2927 112.901C66.3106 112.488 56.2139 110.259 46.8105 99.5744C39.589 91.3682 36.5135 74.6011 36.8946 60.517C57.6703 66.0974 83.5095 87.6114 84.2927 112.901ZM82.5394 47.5307C75.9445 38.7418 47.8348 18.3757 30.0875 15.9604C32.4933 36.4485 33.7982 24.1812 33.8783 56.0009C25.3511 54.2613 9.33019 48.4374 0.99175 51.4279C0.592574 53.9605 16.5206 93.7331 18.9958 98.459C22.7365 105.601 28.6838 112.322 34.2427 116.49C41.0545 121.599 49.0916 122.665 58.8464 123.83C51.6143 130.82 37.3821 135.44 24.4264 136.094C26.2283 140.227 26.5067 139.106 30.6832 141.592C39.88 147.069 38.9881 154.61 42.8309 161.189C45.661 159.282 45.5262 157.918 47.8496 154.326C64.2598 128.958 90.7381 123.907 92.8063 121.583C81.9213 116.738 48.8875 142.99 44.4015 155.18L41.4131 150.158C40.308 147.721 40.1436 147.143 38.7478 145.345C36.8633 142.918 34.2342 140.75 31.6952 138.585C37.3629 135.657 63.4055 131.839 63.2334 120.766C40.016 120.567 30.633 112.997 22.2526 98.402C15.548 86.7261 8.81686 67.2058 4.49568 53.5492C12.6563 53.946 27.4389 56.2031 33.9278 59.6684C35.5175 98.0793 46.5575 117.54 87.3598 115.465C86.7494 86.3704 60.3833 64.0572 36.6283 57.3096C36.3691 43.4765 36.6529 33.5947 34.1008 19.987C54.4942 25.7278 73.9729 40.8758 83.3004 53.2221C102.059 78.0521 97.0509 95.1559 93.513 118.56C99.118 118.33 106.565 108.688 109.057 103.926C117.59 87.6218 114.466 71.5853 124.609 59.3211C133.108 49.0456 138.033 50.1741 137.946 44.5896C132.789 41.2237 134.951 46.6764 124.294 41.0429C108.827 32.8659 101.335 50.6407 96.4545 55.8665C93.5361 58.9917 93.2006 56.6262 94.2773 60.6689C99.0827 60.9467 103.56 48.6012 109.603 44.2503C121 36.0457 125.077 49.7892 134.687 45.8868C131.641 50.0478 128.102 48.7491 121.603 58.4524C112.466 72.0951 114.192 84.2961 108.715 98.2065C106.226 104.529 101.782 110.902 97.577 113.125C102.369 80.2047 98.587 68.9179 82.5394 47.5307Z" fill="black"/>
<path fill-rule="evenodd" clip-rule="evenodd" d="M84.2928 112.901C83.5096 87.6115 57.6704 66.0974 36.8947 60.5171C36.5136 74.6012 39.5891 91.3683 46.8106 99.5745C56.214 110.259 66.3107 112.488 84.2928 112.901Z" fill="#FEFEFE" fill-opacity="0.38"/>
<path fill-rule="evenodd" clip-rule="evenodd" d="M146.034 42.2055C147.639 39.7156 148.612 39.8787 151.267 39.4993C156.588 38.7389 155.441 41.0184 157.681 37.2204L149.953 36.0291C156.956 33.3491 166.427 34.9046 171.314 39.6689C159.895 44.8333 158.231 43.1006 146.034 42.2055ZM139.951 31.2615C132.262 28.078 136.883 19.5925 140.393 11.6749C140.636 11.1259 141.636 9.04168 141.807 8.76861C141.938 8.56152 142.137 8.26851 142.264 8.0861L143.398 6.80604C143.488 6.40165 143.817 6.39517 144.03 6.19329C145.619 11.3867 147.528 18.417 145.368 24.2329L142.445 28.4043C142.265 24.2229 143.283 22.1678 141.618 19.5583C138.572 22.4667 139.377 25.3209 139.951 31.2615ZM158.061 18.8813C158.681 8.87842 170.886 4.98283 181.967 4.10414C179.414 11.8508 172.561 20.4824 162.333 19.9201C164.613 17.4073 169.401 15.1454 171.125 12.1799C166.373 11.0566 161.403 16.5267 158.061 18.8813ZM146.034 42.2055C147.401 50.6946 174.648 45.0825 177.601 38.7359C170.346 34.0502 160.142 30.5777 150.794 31.8181C163.904 15.3515 161.239 26.9739 172.789 20.6136C177.474 18.0336 186.403 7.70814 186.08 0.492702C177.777 -0.198355 163.252 5.52027 158.975 9.90994C157.822 11.093 156.236 13.2779 155.58 15.1533C154.628 17.8726 155.264 16.3565 154.843 18.5921C154.774 18.9584 154.642 20.0859 154.554 20.4416L154.065 22.1434C153.964 22.3877 153.828 22.6619 153.71 22.8886C153.143 23.9785 145.915 32.7724 145.082 33.5123C146.292 26.9973 149.366 26.176 149.182 17.2206C149.053 10.8923 147.378 4.43131 143.76 1.12585C140.86 2.71127 142.211 1.27868 138.478 8.72052C135.759 14.1427 131.09 24.508 133.812 30.4758C135.693 34.6026 139.349 33.2888 141.854 33.8023C144.136 41.6884 141.225 40.8001 139.52 49.6576C138.518 54.8614 136.768 65.1551 141.674 67.6621C142.282 62.8369 141.366 57.8444 141.978 52.8755C142.205 51.0316 142.657 48.6017 143.245 46.7886C144.553 42.759 144.882 43.119 146.034 42.2055Z" fill="black"/>
<path fill-rule="evenodd" clip-rule="evenodd" d="M158.061 18.8812C161.403 16.5266 166.373 11.0565 171.125 12.1798C169.401 15.1453 164.613 17.4072 162.333 19.92C172.561 20.4823 179.414 11.8507 181.967 4.104C170.886 4.9827 158.681 8.87828 158.061 18.8812Z" fill="#C1DD9E"/>
<path fill-rule="evenodd" clip-rule="evenodd" d="M139.952 31.2613C139.378 25.3207 138.574 22.4665 141.62 19.5581C143.285 22.1676 142.267 24.2228 142.447 28.4041L145.369 24.2327C147.529 18.4168 145.62 11.3865 144.032 6.19312C143.819 6.39499 143.489 6.40148 143.399 6.80586L142.266 8.08592C142.139 8.26834 141.939 8.56134 141.809 8.76844C141.637 9.04151 140.637 11.1258 140.394 11.6747C136.884 19.5923 132.263 28.0778 139.952 31.2613Z" fill="#C1DD9E"/>
<path fill-rule="evenodd" clip-rule="evenodd" d="M146.035 42.2061C158.232 43.1013 159.896 44.834 171.316 39.6696C166.428 34.9052 156.957 33.3497 149.954 36.0298L157.683 37.2211C155.442 41.0191 156.589 38.7396 151.268 39.4999C148.614 39.8793 147.641 39.7162 146.035 42.2061Z" fill="#C1DD9E"/>
<path fill-rule="evenodd" clip-rule="evenodd" d="M116.399 50.0942C118.562 49.7816 122.451 48.5192 120.204 46.3184C117.941 44.1017 115.331 45.7273 116.399 50.0942Z" fill="black"/>
</svg>
