<svg width="90" height="24" viewBox="0 0 90 24" fill="none" xmlns="http://www.w3.org/2000/svg">
<path d="M0.498922 17.5612V1.43325C0.498922 1.20925 0.594922 1.04125 0.786922 0.929249C0.994922 0.80125 1.23492 0.73725 1.50692 0.73725C1.77892 0.73725 2.01092 0.80125 2.20292 0.929249C2.41092 1.04125 2.51492 1.20925 2.51492 1.43325V16.4572H9.06692C9.27492 16.4572 9.43492 16.5532 9.54692 16.7452C9.65892 16.9212 9.71492 17.1292 9.71492 17.3692C9.71492 17.6092 9.65892 17.8252 9.54692 18.0172C9.43492 18.1932 9.27492 18.2812 9.06692 18.2812H1.41092C1.17092 18.2812 0.954922 18.2172 0.762922 18.0892C0.586922 17.9612 0.498922 17.7852 0.498922 17.5612ZM18.1642 13.8172V11.3692C18.1642 10.1372 18.6282 9.06525 19.5562 8.15325C20.5002 7.22525 21.6122 6.76125 22.8922 6.76125C24.1722 6.76125 25.2842 7.21725 26.2282 8.12925C27.1722 9.04125 27.6442 10.1212 27.6442 11.3692V13.8172C27.6442 15.0332 27.1642 16.1132 26.2042 17.0572C25.2602 18.0012 24.1562 18.4733 22.8922 18.4733C21.6282 18.4733 20.5242 18.0093 19.5802 17.0812C18.6362 16.1372 18.1642 15.0492 18.1642 13.8172ZM20.1562 13.8172C20.1562 14.5692 20.4282 15.2332 20.9722 15.8092C21.5162 16.3852 22.1562 16.6732 22.8922 16.6732C23.6442 16.6732 24.2922 16.3852 24.8362 15.8092C25.3802 15.2172 25.6522 14.5532 25.6522 13.8172V11.3692C25.6522 10.6492 25.3802 10.0012 24.8362 9.42525C24.2922 8.84925 23.6442 8.56125 22.8922 8.56125C22.1402 8.56125 21.4922 8.84925 20.9482 9.42525C20.4202 10.0012 20.1562 10.6492 20.1562 11.3692V13.8172ZM36.5857 20.5373C36.5857 19.3693 37.2337 18.4973 38.5297 17.9212C37.7137 17.6172 37.3057 17.0812 37.3057 16.3132C37.3057 15.5772 37.7057 14.9852 38.5057 14.5372C37.5937 13.8012 37.1377 12.7932 37.1377 11.5132V10.7212C37.1377 9.55325 37.5297 8.60125 38.3137 7.86525C39.0977 7.12925 40.1297 6.76125 41.4097 6.76125C42.4977 6.76125 43.4337 7.07325 44.2177 7.69725C44.6977 6.65725 45.2417 6.13725 45.8497 6.13725C46.1057 6.13725 46.3137 6.21725 46.4737 6.37725C46.6337 6.52125 46.7137 6.68925 46.7137 6.88125C46.7137 7.12125 46.5777 7.30525 46.3057 7.43325C45.7617 7.57725 45.3297 7.91325 45.0097 8.44125C45.5057 9.03325 45.7537 9.79325 45.7537 10.7212V11.5132C45.7537 12.6652 45.3457 13.6172 44.5297 14.3692C43.7137 15.1212 42.6737 15.4972 41.4097 15.4972C40.7537 15.4972 40.1617 15.3772 39.6337 15.1372C39.2337 15.3772 39.0337 15.6492 39.0337 15.9532C39.0337 16.2572 39.2177 16.4972 39.5857 16.6732C39.9537 16.8332 40.4097 16.9372 40.9537 16.9852C41.4977 17.0172 42.0897 17.0892 42.7297 17.2012C43.3697 17.3132 43.9617 17.4572 44.5057 17.6332C45.0497 17.8092 45.5057 18.1212 45.8737 18.5693C46.2417 19.0173 46.4257 19.5853 46.4257 20.2733C46.4257 21.4093 45.9697 22.2733 45.0577 22.8653C44.1617 23.4733 42.9937 23.7773 41.5537 23.7773C40.1137 23.7773 38.9217 23.4813 37.9777 22.8893C37.0497 22.3133 36.5857 21.5293 36.5857 20.5373ZM38.4817 20.3213C38.4817 20.9453 38.7537 21.4413 39.2977 21.8092C39.8577 22.1933 40.6017 22.3853 41.5297 22.3853C42.4257 22.3853 43.1377 22.1933 43.6657 21.8092C44.2097 21.4413 44.4817 20.9453 44.4817 20.3213C44.4817 20.0653 44.4337 19.8413 44.3377 19.6493C44.2577 19.4573 44.1217 19.2973 43.9297 19.1693C43.7377 19.0413 43.5457 18.9293 43.3537 18.8333C43.1617 18.7533 42.9137 18.6813 42.6097 18.6173C42.3057 18.5693 42.0497 18.5293 41.8417 18.4973C41.6497 18.4813 41.3857 18.4573 41.0497 18.4253C40.7297 18.3933 40.5057 18.3693 40.3777 18.3533C39.1137 18.7693 38.4817 19.4253 38.4817 20.3213ZM39.0817 11.4892C39.0817 12.2572 39.2897 12.8892 39.7057 13.3852C40.1377 13.8812 40.7217 14.1292 41.4577 14.1292C42.1617 14.1292 42.7297 13.8892 43.1617 13.4092C43.5937 12.9132 43.8097 12.2812 43.8097 11.5132V10.7212C43.8097 9.98525 43.5937 9.36925 43.1617 8.87325C42.7297 8.37725 42.1537 8.12925 41.4337 8.12925C40.6977 8.12925 40.1217 8.37725 39.7057 8.87325C39.2897 9.35325 39.0817 9.96925 39.0817 10.7212V11.4892ZM68.2232 3.44925C67.9832 3.20925 67.8632 2.93725 67.8632 2.63325C67.8632 2.32925 67.9832 2.06525 68.2232 1.84125C68.4632 1.61725 68.7592 1.50525 69.1112 1.50525C69.4472 1.50525 69.7352 1.61725 69.9752 1.84125C70.2152 2.06525 70.3352 2.32925 70.3352 2.63325C70.3352 2.93725 70.2152 3.20925 69.9752 3.44925C69.7352 3.67325 69.4472 3.78525 69.1112 3.78525C68.7752 3.78525 68.4792 3.67325 68.2232 3.44925ZM68.1272 17.5612V7.60125C68.1272 7.39325 68.2232 7.22525 68.4152 7.09725C68.6072 6.96925 68.8392 6.90525 69.1112 6.90525C69.3992 6.90525 69.6392 6.96925 69.8312 7.09725C70.0232 7.22525 70.1192 7.39325 70.1192 7.60125V17.5612C70.1192 17.7372 70.0152 17.9052 69.8072 18.0652C69.6152 18.2092 69.3832 18.2812 69.1112 18.2812C68.8392 18.2812 68.6072 18.2092 68.4152 18.0652C68.2232 17.9212 68.1272 17.7532 68.1272 17.5612ZM80.3953 17.5612V7.60125C80.3953 7.39325 80.4833 7.22525 80.6593 7.09725C80.8513 6.96925 81.0913 6.90525 81.3793 6.90525C81.6193 6.90525 81.8273 6.97725 82.0033 7.12125C82.1953 7.24925 82.2913 7.40925 82.2913 7.60125V8.58525C82.5473 8.07325 82.9553 7.64125 83.5153 7.28925C84.0913 6.93725 84.7553 6.76125 85.5073 6.76125C86.6433 6.76125 87.6273 7.21725 88.4593 8.12925C89.3073 9.02525 89.7313 10.1052 89.7313 11.3692V17.5612C89.7313 17.7852 89.6273 17.9612 89.4193 18.0892C89.2273 18.2172 88.9953 18.2812 88.7233 18.2812C88.4673 18.2812 88.2353 18.2172 88.0273 18.0892C87.8353 17.9612 87.7393 17.7852 87.7393 17.5612V11.3692C87.7393 10.6492 87.4673 10.0012 86.9233 9.42525C86.3793 8.84925 85.7393 8.56125 85.0033 8.56125C84.3153 8.56125 83.7073 8.82525 83.1793 9.35325C82.6513 9.86525 82.3873 10.5372 82.3873 11.3692V17.5612C82.3873 17.7372 82.2833 17.9052 82.0753 18.0652C81.8673 18.2092 81.6353 18.2812 81.3793 18.2812C81.1073 18.2812 80.8753 18.2092 80.6833 18.0652C80.4913 17.9212 80.3953 17.7532 80.3953 17.5612Z" fill="black"/>
</svg>
